<svg width="250" height="93" viewBox="0 0 250 93" fill="none" xmlns="http://www.w3.org/2000/svg">
<g filter="url(#filter0_d_10_305)">
<path d="M4.42969 0.390625H31.3125V5.19531H20.2734V34H15.4688V5.19531H4.42969V0.390625ZM48.1172 0.390625L61.0781 34H56.2734L53.2969 26.2656H38.1328L35.1562 34H30.3516L43.3125 0.390625H48.1172ZM39.9609 21.4609H51.4453L45.7266 6.64844L39.9609 21.4609ZM71.6484 19.6094C70.9922 19.6094 70.3672 19.4844 69.7734 19.2344C69.1953 18.9688 68.6875 18.625 68.25 18.2031C67.8125 17.7656 67.4688 17.2578 67.2188 16.6797C66.9688 16.0859 66.8438 15.4609 66.8438 14.8047V5.19531C66.8438 4.53906 66.9688 3.92188 67.2188 3.34375C67.4688 2.75 67.8125 2.24219 68.25 1.82031C68.6875 1.38281 69.1953 1.03906 69.7734 0.789062C70.3672 0.523438 70.9922 0.390625 71.6484 0.390625H87.9609C88.6172 0.390625 89.2344 0.523438 89.8125 0.789062C90.4062 1.03906 90.9219 1.38281 91.3594 1.82031C91.7969 2.24219 92.1406 2.75 92.3906 3.34375C92.6406 3.92188 92.7656 4.53906 92.7656 5.19531V9.53125H87.9609V5.19531H71.6484V14.8047H87.9609C88.6172 14.8047 89.2344 14.9297 89.8125 15.1797C90.4062 15.4297 90.9219 15.7734 91.3594 16.2109C91.7969 16.6484 92.1406 17.1641 92.3906 17.7578C92.6406 18.3359 92.7656 18.9531 92.7656 19.6094V29.1953C92.7656 29.8516 92.6406 30.4766 92.3906 31.0703C92.1406 31.6484 91.7969 32.1562 91.3594 32.5938C90.9219 33.0312 90.4062 33.375 89.8125 33.625C89.2344 33.875 88.6172 34 87.9609 34H71.1797C70.5234 34 69.8984 33.875 69.3047 33.625C68.7266 33.375 68.2188 33.0312 67.7812 32.5938C67.3438 32.1562 67 31.6484 66.75 31.0703C66.5 30.4766 66.375 29.8516 66.375 29.1953V24.8828H71.1797V29.1953H87.9609V19.6094H71.6484ZM106.242 0.390625V14.8984L122.273 0.390625H129.047L110.859 16.8672L129.773 34H123L106.242 18.8828V34H101.438V0.390625H106.242ZM177.352 29.1953C177.352 29.8516 177.227 30.4766 176.977 31.0703C176.727 31.6484 176.383 32.1562 175.945 32.5938C175.508 33.0312 174.992 33.375 174.398 33.625C173.82 33.875 173.203 34 172.547 34H153.352C152.695 34 152.07 33.875 151.477 33.625C150.898 33.375 150.391 33.0312 149.953 32.5938C149.516 32.1562 149.172 31.6484 148.922 31.0703C148.672 30.4766 148.547 29.8516 148.547 29.1953V5.19531C148.547 4.53906 148.672 3.92188 148.922 3.34375C149.172 2.75 149.516 2.24219 149.953 1.82031C150.391 1.38281 150.898 1.03906 151.477 0.789062C152.07 0.523438 152.695 0.390625 153.352 0.390625H172.547C173.203 0.390625 173.82 0.523438 174.398 0.789062C174.992 1.03906 175.508 1.38281 175.945 1.82031C176.383 2.24219 176.727 2.75 176.977 3.34375C177.227 3.92188 177.352 4.53906 177.352 5.19531V29.1953ZM153.352 5.19531V29.1953H172.547V5.19531H153.352ZM186 34V0.390625H204.398C209.836 0.390625 212.555 3.11719 212.555 8.57031V13.3516C212.555 18.8047 209.836 21.5312 204.398 21.5312H190.805V34H186ZM190.805 16.7266H204.141C205.422 16.7266 206.344 16.4453 206.906 15.8828C207.469 15.3203 207.75 14.3984 207.75 13.1172V8.80469C207.75 7.52344 207.469 6.60156 206.906 6.03906C206.344 5.47656 205.422 5.19531 204.141 5.19531H190.805V16.7266ZM224.086 19.6094C223.43 19.6094 222.805 19.4844 222.211 19.2344C221.633 18.9688 221.125 18.625 220.688 18.2031C220.25 17.7656 219.906 17.2578 219.656 16.6797C219.406 16.0859 219.281 15.4609 219.281 14.8047V5.19531C219.281 4.53906 219.406 3.92188 219.656 3.34375C219.906 2.75 220.25 2.24219 220.688 1.82031C221.125 1.38281 221.633 1.03906 222.211 0.789062C222.805 0.523438 223.43 0.390625 224.086 0.390625H240.398C241.055 0.390625 241.672 0.523438 242.25 0.789062C242.844 1.03906 243.359 1.38281 243.797 1.82031C244.234 2.24219 244.578 2.75 244.828 3.34375C245.078 3.92188 245.203 4.53906 245.203 5.19531V9.53125H240.398V5.19531H224.086V14.8047H240.398C241.055 14.8047 241.672 14.9297 242.25 15.1797C242.844 15.4297 243.359 15.7734 243.797 16.2109C244.234 16.6484 244.578 17.1641 244.828 17.7578C245.078 18.3359 245.203 18.9531 245.203 19.6094V29.1953C245.203 29.8516 245.078 30.4766 244.828 31.0703C244.578 31.6484 244.234 32.1562 243.797 32.5938C243.359 33.0312 242.844 33.375 242.25 33.625C241.672 33.875 241.055 34 240.398 34H223.617C222.961 34 222.336 33.875 221.742 33.625C221.164 33.375 220.656 33.0312 220.219 32.5938C219.781 32.1562 219.438 31.6484 219.188 31.0703C218.938 30.4766 218.812 29.8516 218.812 29.1953V24.8828H223.617V29.1953H240.398V19.6094H224.086ZM11.6484 52.1953V56.5312H6.84375V52.1953C6.84375 51.5391 6.96875 50.9219 7.21875 50.3438C7.46875 49.75 7.8125 49.2422 8.25 48.8203C8.6875 48.3828 9.19531 48.0391 9.77344 47.7891C10.3672 47.5234 10.9922 47.3906 11.6484 47.3906H26.8594C27.5156 47.3906 28.1328 47.5234 28.7109 47.7891C29.3047 48.0391 29.8125 48.3828 30.2344 48.8203C30.6719 49.2422 31.0156 49.75 31.2656 50.3438C31.5312 50.9219 31.6641 51.5391 31.6641 52.1953V58.3359C31.6641 58.9922 31.6016 59.5781 31.4766 60.0938C31.3516 60.6094 31.1484 61.0781 30.8672 61.5C30.6016 61.9062 30.2578 62.2734 29.8359 62.6016C29.4141 62.9297 28.8984 63.2422 28.2891 63.5391L11.6484 71.3438V76.1953H27.4688V71.8828H32.2734V81H6.84375V72.1641C6.84375 71.5078 6.90625 70.9219 7.03125 70.4062C7.17188 69.8906 7.375 69.4297 7.64062 69.0234C7.90625 68.6172 8.25 68.25 8.67188 67.9219C9.10938 67.5781 9.61719 67.2656 10.1953 66.9844L26.8594 59.1562V52.1953H11.6484ZM39.9844 73.9922H46.9922V81H39.9844V73.9922ZM81.5859 76.1953C81.5859 76.8516 81.4609 77.4766 81.2109 78.0703C80.9609 78.6484 80.6172 79.1562 80.1797 79.5938C79.7422 80.0312 79.2266 80.375 78.6328 80.625C78.0547 80.875 77.4375 81 76.7812 81H59.9766C59.3203 81 58.6953 80.875 58.1016 80.625C57.5234 80.375 57.0156 80.0312 56.5781 79.5938C56.1406 79.1562 55.7969 78.6484 55.5469 78.0703C55.2969 77.4766 55.1719 76.8516 55.1719 76.1953V52.1953C55.1719 51.5391 55.2969 50.9219 55.5469 50.3438C55.7969 49.75 56.1406 49.2422 56.5781 48.8203C57.0156 48.3828 57.5234 48.0391 58.1016 47.7891C58.6953 47.5234 59.3203 47.3906 59.9766 47.3906H76.7812C77.4375 47.3906 78.0547 47.5234 78.6328 47.7891C79.2266 48.0391 79.7422 48.3828 80.1797 48.8203C80.6172 49.2422 80.9609 49.75 81.2109 50.3438C81.4609 50.9219 81.5859 51.5391 81.5859 52.1953V76.1953ZM59.9766 52.1953V76.1953H76.7812V52.1953H59.9766Z" fill="#43FFFF"/>
</g>
<defs>
<filter id="filter0_d_10_305" x="0.429688" y="0.390625" width="248.773" height="92.6094" filterUnits="userSpaceOnUse" color-interpolation-filters="sRGB">
<feFlood flood-opacity="0" result="BackgroundImageFix"/>
<feColorMatrix in="SourceAlpha" type="matrix" values="0 0 0 0 0 0 0 0 0 0 0 0 0 0 0 0 0 0 127 0" result="hardAlpha"/>
<feOffset dy="8"/>
<feGaussianBlur stdDeviation="2"/>
<feComposite in2="hardAlpha" operator="out"/>
<feColorMatrix type="matrix" values="0 0 0 0 0.0627451 0 0 0 0 0.239216 0 0 0 0 0.243137 0 0 0 1 0"/>
<feBlend mode="normal" in2="BackgroundImageFix" result="effect1_dropShadow_10_305"/>
<feBlend mode="normal" in="SourceGraphic" in2="effect1_dropShadow_10_305" result="shape"/>
</filter>
</defs>
</svg>
