<svg width="221" height="103" viewBox="0 0 221 103" fill="none" xmlns="http://www.w3.org/2000/svg">
<g filter="url(#filter0_d_10_378)">
<mask id="path-1-inside-1_10_378" fill="white">
<path d="M10.0156 0.189453V32.5947H29.4482V38H4.61035V0.189453H10.0156ZM35.9346 0.189453H63.4883V5.59473H41.3398V16.4053H60.2451V21.8105H41.3398V32.5947H63.4883V38H35.9346V0.189453ZM88.3262 0.189453L102.907 38H97.502L94.1533 29.2988H77.0938L73.7451 38H68.3398L82.9209 0.189453H88.3262ZM79.1504 23.8936H92.0703L85.6367 7.22949L79.1504 23.8936ZM128.615 32.5947C131.129 32.5947 133.062 31.918 134.416 30.5645C135.77 29.2109 136.446 27.2773 136.446 24.7637V13.4258C136.446 12.1953 136.271 11.0967 135.919 10.1299C135.567 9.16309 135.049 8.3457 134.363 7.67773C133.695 6.99219 132.878 6.47363 131.911 6.12207C130.944 5.77051 129.846 5.59473 128.615 5.59473H114.799V32.5947H128.615ZM109.394 38V0.189453H128.615C130.637 0.189453 132.456 0.505859 134.073 1.13867C135.708 1.75391 137.097 2.6416 138.239 3.80176C139.399 4.94434 140.287 6.33301 140.902 7.96777C141.535 9.60254 141.852 11.4219 141.852 13.4258V24.7637C141.852 26.7676 141.535 28.5869 140.902 30.2217C140.287 31.8564 139.399 33.2539 138.239 34.4141C137.097 35.5566 135.708 36.4443 134.073 37.0771C132.456 37.6924 130.637 38 128.615 38H109.394ZM150.526 0.189453H178.08V5.59473H155.932V16.4053H174.837V21.8105H155.932V32.5947H178.08V38H150.526V0.189453ZM216.049 13.6895C216.049 18.9629 213.799 21.9688 209.299 22.707L216.418 38H210.433L203.419 22.8916H191.58V38H186.175V0.189453H206.873C212.99 0.189453 216.049 3.25684 216.049 9.3916V13.6895ZM191.58 17.4863H206.583C208.024 17.4863 209.062 17.1699 209.694 16.5371C210.327 15.9043 210.644 14.8672 210.644 13.4258V9.65527C210.644 8.21387 210.327 7.17676 209.694 6.54395C209.062 5.91113 208.024 5.59473 206.583 5.59473H191.58V17.4863ZM40.4961 71.2773C41.2871 71.5234 42.0078 71.875 42.6582 72.332C43.3086 72.7891 43.8623 73.3779 44.3193 74.0986C44.7764 74.8018 45.1279 75.6367 45.374 76.6035C45.6201 77.5703 45.7432 78.6777 45.7432 79.9258V81.8242C45.7432 87.9414 42.6846 91 36.5674 91H15.8691V53.1895H35.4863C41.6035 53.1895 44.6621 56.2568 44.6621 62.3916V63.0771C44.6621 65.2041 44.3193 66.9443 43.6338 68.2979C42.9658 69.6338 41.9199 70.627 40.4961 71.2773ZM21.1689 74.5205V85.7002H36.4092C37.833 85.7002 38.8613 85.3662 39.4941 84.6982C40.127 84.0303 40.4434 82.9844 40.4434 81.5605V78.6338C40.4434 77.1924 40.127 76.1465 39.4941 75.4961C38.8613 74.8457 37.833 74.5205 36.4092 74.5205H21.1689ZM21.1689 58.4893V69.2471H35.6973C36.998 69.1943 37.9297 68.8428 38.4922 68.1924C39.0723 67.5244 39.3623 66.5049 39.3623 65.1338V62.6553C39.3623 61.2139 39.0459 60.1592 38.4131 59.4912C37.7803 58.8232 36.752 58.4893 35.3281 58.4893H21.1689ZM86.2432 85.5947C86.2432 86.333 86.1025 87.0361 85.8213 87.7041C85.54 88.3545 85.1533 88.9258 84.6611 89.418C84.1689 89.9102 83.5889 90.2969 82.9209 90.5781C82.2705 90.8594 81.5762 91 80.8379 91H59.2432C58.5049 91 57.8018 90.8594 57.1338 90.5781C56.4834 90.2969 55.9121 89.9102 55.4199 89.418C54.9277 88.9258 54.541 88.3545 54.2598 87.7041C53.9785 87.0361 53.8379 86.333 53.8379 85.5947V58.5947C53.8379 57.8564 53.9785 57.1621 54.2598 56.5117C54.541 55.8438 54.9277 55.2725 55.4199 54.7979C55.9121 54.3057 56.4834 53.9189 57.1338 53.6377C57.8018 53.3389 58.5049 53.1895 59.2432 53.1895H80.8379C81.5762 53.1895 82.2705 53.3389 82.9209 53.6377C83.5889 53.9189 84.1689 54.3057 84.6611 54.7979C85.1533 55.2725 85.54 55.8438 85.8213 56.5117C86.1025 57.1621 86.2432 57.8564 86.2432 58.5947V85.5947ZM59.2432 58.5947V85.5947H80.8379V58.5947H59.2432ZM112.716 53.1895L127.297 91H121.892L118.543 82.2988H101.483L98.1348 91H92.7295L107.311 53.1895H112.716ZM103.54 76.8936H116.46L110.026 60.2295L103.54 76.8936ZM163.657 66.6895C163.657 71.9629 161.407 74.9688 156.907 75.707L164.026 91H158.041L151.027 75.8916H139.188V91H133.783V53.1895H154.481C160.599 53.1895 163.657 56.2568 163.657 62.3916V66.6895ZM139.188 70.4863H154.191C155.633 70.4863 156.67 70.1699 157.303 69.5371C157.936 68.9043 158.252 67.8672 158.252 66.4258V62.6553C158.252 61.2139 157.936 60.1768 157.303 59.5439C156.67 58.9111 155.633 58.5947 154.191 58.5947H139.188V70.4863ZM191.923 85.5947C194.437 85.5947 196.37 84.918 197.724 83.5645C199.077 82.2109 199.754 80.2773 199.754 77.7637V66.4258C199.754 65.1953 199.578 64.0967 199.227 63.1299C198.875 62.1631 198.356 61.3457 197.671 60.6777C197.003 59.9922 196.186 59.4736 195.219 59.1221C194.252 58.7705 193.153 58.5947 191.923 58.5947H178.106V85.5947H191.923ZM172.701 91V53.1895H191.923C193.944 53.1895 195.764 53.5059 197.381 54.1387C199.016 54.7539 200.404 55.6416 201.547 56.8018C202.707 57.9443 203.595 59.333 204.21 60.9678C204.843 62.6025 205.159 64.4219 205.159 66.4258V77.7637C205.159 79.7676 204.843 81.5869 204.21 83.2217C203.595 84.8564 202.707 86.2539 201.547 87.4141C200.404 88.5566 199.016 89.4443 197.381 90.0771C195.764 90.6924 193.944 91 191.923 91H172.701Z"/>
</mask>
<path d="M10.0156 0.189453V32.5947H29.4482V38H4.61035V0.189453H10.0156ZM35.9346 0.189453H63.4883V5.59473H41.3398V16.4053H60.2451V21.8105H41.3398V32.5947H63.4883V38H35.9346V0.189453ZM88.3262 0.189453L102.907 38H97.502L94.1533 29.2988H77.0938L73.7451 38H68.3398L82.9209 0.189453H88.3262ZM79.1504 23.8936H92.0703L85.6367 7.22949L79.1504 23.8936ZM128.615 32.5947C131.129 32.5947 133.062 31.918 134.416 30.5645C135.77 29.2109 136.446 27.2773 136.446 24.7637V13.4258C136.446 12.1953 136.271 11.0967 135.919 10.1299C135.567 9.16309 135.049 8.3457 134.363 7.67773C133.695 6.99219 132.878 6.47363 131.911 6.12207C130.944 5.77051 129.846 5.59473 128.615 5.59473H114.799V32.5947H128.615ZM109.394 38V0.189453H128.615C130.637 0.189453 132.456 0.505859 134.073 1.13867C135.708 1.75391 137.097 2.6416 138.239 3.80176C139.399 4.94434 140.287 6.33301 140.902 7.96777C141.535 9.60254 141.852 11.4219 141.852 13.4258V24.7637C141.852 26.7676 141.535 28.5869 140.902 30.2217C140.287 31.8564 139.399 33.2539 138.239 34.4141C137.097 35.5566 135.708 36.4443 134.073 37.0771C132.456 37.6924 130.637 38 128.615 38H109.394ZM150.526 0.189453H178.08V5.59473H155.932V16.4053H174.837V21.8105H155.932V32.5947H178.08V38H150.526V0.189453ZM216.049 13.6895C216.049 18.9629 213.799 21.9688 209.299 22.707L216.418 38H210.433L203.419 22.8916H191.58V38H186.175V0.189453H206.873C212.99 0.189453 216.049 3.25684 216.049 9.3916V13.6895ZM191.58 17.4863H206.583C208.024 17.4863 209.062 17.1699 209.694 16.5371C210.327 15.9043 210.644 14.8672 210.644 13.4258V9.65527C210.644 8.21387 210.327 7.17676 209.694 6.54395C209.062 5.91113 208.024 5.59473 206.583 5.59473H191.58V17.4863ZM40.4961 71.2773C41.2871 71.5234 42.0078 71.875 42.6582 72.332C43.3086 72.7891 43.8623 73.3779 44.3193 74.0986C44.7764 74.8018 45.1279 75.6367 45.374 76.6035C45.6201 77.5703 45.7432 78.6777 45.7432 79.9258V81.8242C45.7432 87.9414 42.6846 91 36.5674 91H15.8691V53.1895H35.4863C41.6035 53.1895 44.6621 56.2568 44.6621 62.3916V63.0771C44.6621 65.2041 44.3193 66.9443 43.6338 68.2979C42.9658 69.6338 41.9199 70.627 40.4961 71.2773ZM21.1689 74.5205V85.7002H36.4092C37.833 85.7002 38.8613 85.3662 39.4941 84.6982C40.127 84.0303 40.4434 82.9844 40.4434 81.5605V78.6338C40.4434 77.1924 40.127 76.1465 39.4941 75.4961C38.8613 74.8457 37.833 74.5205 36.4092 74.5205H21.1689ZM21.1689 58.4893V69.2471H35.6973C36.998 69.1943 37.9297 68.8428 38.4922 68.1924C39.0723 67.5244 39.3623 66.5049 39.3623 65.1338V62.6553C39.3623 61.2139 39.0459 60.1592 38.4131 59.4912C37.7803 58.8232 36.752 58.4893 35.3281 58.4893H21.1689ZM86.2432 85.5947C86.2432 86.333 86.1025 87.0361 85.8213 87.7041C85.54 88.3545 85.1533 88.9258 84.6611 89.418C84.1689 89.9102 83.5889 90.2969 82.9209 90.5781C82.2705 90.8594 81.5762 91 80.8379 91H59.2432C58.5049 91 57.8018 90.8594 57.1338 90.5781C56.4834 90.2969 55.9121 89.9102 55.4199 89.418C54.9277 88.9258 54.541 88.3545 54.2598 87.7041C53.9785 87.0361 53.8379 86.333 53.8379 85.5947V58.5947C53.8379 57.8564 53.9785 57.1621 54.2598 56.5117C54.541 55.8438 54.9277 55.2725 55.4199 54.7979C55.9121 54.3057 56.4834 53.9189 57.1338 53.6377C57.8018 53.3389 58.5049 53.1895 59.2432 53.1895H80.8379C81.5762 53.1895 82.2705 53.3389 82.9209 53.6377C83.5889 53.9189 84.1689 54.3057 84.6611 54.7979C85.1533 55.2725 85.54 55.8438 85.8213 56.5117C86.1025 57.1621 86.2432 57.8564 86.2432 58.5947V85.5947ZM59.2432 58.5947V85.5947H80.8379V58.5947H59.2432ZM112.716 53.1895L127.297 91H121.892L118.543 82.2988H101.483L98.1348 91H92.7295L107.311 53.1895H112.716ZM103.54 76.8936H116.46L110.026 60.2295L103.54 76.8936ZM163.657 66.6895C163.657 71.9629 161.407 74.9688 156.907 75.707L164.026 91H158.041L151.027 75.8916H139.188V91H133.783V53.1895H154.481C160.599 53.1895 163.657 56.2568 163.657 62.3916V66.6895ZM139.188 70.4863H154.191C155.633 70.4863 156.67 70.1699 157.303 69.5371C157.936 68.9043 158.252 67.8672 158.252 66.4258V62.6553C158.252 61.2139 157.936 60.1768 157.303 59.5439C156.67 58.9111 155.633 58.5947 154.191 58.5947H139.188V70.4863ZM191.923 85.5947C194.437 85.5947 196.37 84.918 197.724 83.5645C199.077 82.2109 199.754 80.2773 199.754 77.7637V66.4258C199.754 65.1953 199.578 64.0967 199.227 63.1299C198.875 62.1631 198.356 61.3457 197.671 60.6777C197.003 59.9922 196.186 59.4736 195.219 59.1221C194.252 58.7705 193.153 58.5947 191.923 58.5947H178.106V85.5947H191.923ZM172.701 91V53.1895H191.923C193.944 53.1895 195.764 53.5059 197.381 54.1387C199.016 54.7539 200.404 55.6416 201.547 56.8018C202.707 57.9443 203.595 59.333 204.21 60.9678C204.843 62.6025 205.159 64.4219 205.159 66.4258V77.7637C205.159 79.7676 204.843 81.5869 204.21 83.2217C203.595 84.8564 202.707 86.2539 201.547 87.4141C200.404 88.5566 199.016 89.4443 197.381 90.0771C195.764 90.6924 193.944 91 191.923 91H172.701Z" fill="#43FFFF"/>
<path d="M10.0156 0.189453H11.0156V-0.810547H10.0156V0.189453ZM10.0156 32.5947H9.01562V33.5947H10.0156V32.5947ZM29.4482 32.5947H30.4482V31.5947H29.4482V32.5947ZM29.4482 38V39H30.4482V38H29.4482ZM4.61035 38H3.61035V39H4.61035V38ZM4.61035 0.189453V-0.810547H3.61035V0.189453H4.61035ZM9.01562 0.189453V32.5947H11.0156V0.189453H9.01562ZM10.0156 33.5947H29.4482V31.5947H10.0156V33.5947ZM28.4482 32.5947V38H30.4482V32.5947H28.4482ZM29.4482 37H4.61035V39H29.4482V37ZM5.61035 38V0.189453H3.61035V38H5.61035ZM4.61035 1.18945H10.0156V-0.810547H4.61035V1.18945ZM35.9346 0.189453V-0.810547H34.9346V0.189453H35.9346ZM63.4883 0.189453H64.4883V-0.810547H63.4883V0.189453ZM63.4883 5.59473V6.59473H64.4883V5.59473H63.4883ZM41.3398 5.59473V4.59473H40.3398V5.59473H41.3398ZM41.3398 16.4053H40.3398V17.4053H41.3398V16.4053ZM60.2451 16.4053H61.2451V15.4053H60.2451V16.4053ZM60.2451 21.8105V22.8105H61.2451V21.8105H60.2451ZM41.3398 21.8105V20.8105H40.3398V21.8105H41.3398ZM41.3398 32.5947H40.3398V33.5947H41.3398V32.5947ZM63.4883 32.5947H64.4883V31.5947H63.4883V32.5947ZM63.4883 38V39H64.4883V38H63.4883ZM35.9346 38H34.9346V39H35.9346V38ZM35.9346 1.18945H63.4883V-0.810547H35.9346V1.18945ZM62.4883 0.189453V5.59473H64.4883V0.189453H62.4883ZM63.4883 4.59473H41.3398V6.59473H63.4883V4.59473ZM40.3398 5.59473V16.4053H42.3398V5.59473H40.3398ZM41.3398 17.4053H60.2451V15.4053H41.3398V17.4053ZM59.2451 16.4053V21.8105H61.2451V16.4053H59.2451ZM60.2451 20.8105H41.3398V22.8105H60.2451V20.8105ZM40.3398 21.8105V32.5947H42.3398V21.8105H40.3398ZM41.3398 33.5947H63.4883V31.5947H41.3398V33.5947ZM62.4883 32.5947V38H64.4883V32.5947H62.4883ZM63.4883 37H35.9346V39H63.4883V37ZM36.9346 38V0.189453H34.9346V38H36.9346ZM88.3262 0.189453L89.2592 -0.170354L89.0123 -0.810547H88.3262V0.189453ZM102.907 38V39H104.365L103.84 37.6402L102.907 38ZM97.502 38L96.5687 38.3592L96.8153 39H97.502V38ZM94.1533 29.2988L95.0866 28.9397L94.84 28.2988H94.1533V29.2988ZM77.0938 29.2988V28.2988H76.4071L76.1605 28.9397L77.0938 29.2988ZM73.7451 38V39H74.4318L74.6784 38.3592L73.7451 38ZM68.3398 38L67.4068 37.6402L66.8824 39H68.3398V38ZM82.9209 0.189453V-0.810547H82.2348L81.9879 -0.170354L82.9209 0.189453ZM79.1504 23.8936L78.2185 23.5308L77.6881 24.8936H79.1504V23.8936ZM92.0703 23.8936V24.8936H93.5283L93.0032 23.5334L92.0703 23.8936ZM85.6367 7.22949L86.5696 6.86933L85.6405 4.46285L84.7048 6.86676L85.6367 7.22949ZM87.3931 0.54926L101.974 38.3598L103.84 37.6402L89.2592 -0.170354L87.3931 0.54926ZM102.907 37H97.502V39H102.907V37ZM98.4352 37.6408L95.0866 28.9397L93.22 29.658L96.5687 38.3592L98.4352 37.6408ZM94.1533 28.2988H77.0938V30.2988H94.1533V28.2988ZM76.1605 28.9397L72.8118 37.6408L74.6784 38.3592L78.027 29.658L76.1605 28.9397ZM73.7451 37H68.3398V39H73.7451V37ZM69.2729 38.3598L83.8539 0.54926L81.9879 -0.170354L67.4068 37.6402L69.2729 38.3598ZM82.9209 1.18945H88.3262V-0.810547H82.9209V1.18945ZM79.1504 24.8936H92.0703V22.8936H79.1504V24.8936ZM93.0032 23.5334L86.5696 6.86933L84.7038 7.58966L91.1374 24.2537L93.0032 23.5334ZM84.7048 6.86676L78.2185 23.5308L80.0823 24.2563L86.5686 7.59222L84.7048 6.86676ZM135.919 10.1299L134.979 10.4716L135.919 10.1299ZM134.363 7.67773L133.647 8.3756L133.656 8.3849L133.665 8.39396L134.363 7.67773ZM131.911 6.12207L131.569 7.06186L131.911 6.12207ZM114.799 5.59473V4.59473H113.799V5.59473H114.799ZM114.799 32.5947H113.799V33.5947H114.799V32.5947ZM109.394 38H108.394V39H109.394V38ZM109.394 0.189453V-0.810547H108.394V0.189453H109.394ZM134.073 1.13867L133.709 2.06999L133.721 2.07459L134.073 1.13867ZM138.239 3.80176L137.527 4.50345L137.532 4.50889L137.538 4.51424L138.239 3.80176ZM140.902 7.96777L139.966 8.32001L139.97 8.32877L140.902 7.96777ZM140.902 30.2217L139.97 29.8607L139.966 29.8695L140.902 30.2217ZM134.073 37.0771L134.429 38.0118L134.434 38.0097L134.073 37.0771ZM128.615 33.5947C131.308 33.5947 133.529 32.8659 135.123 31.2716L133.709 29.8573C132.596 30.97 130.95 31.5947 128.615 31.5947V33.5947ZM135.123 31.2716C136.717 29.6772 137.446 27.4563 137.446 24.7637H135.446C135.446 27.0984 134.822 28.7446 133.709 29.8573L135.123 31.2716ZM137.446 24.7637V13.4258H135.446V24.7637H137.446ZM137.446 13.4258C137.446 12.101 137.257 10.8836 136.859 9.78814L134.979 10.4716C135.284 11.3098 135.446 12.2896 135.446 13.4258H137.446ZM136.859 9.78814C136.46 8.69068 135.862 7.74223 135.061 6.9615L133.665 8.39396C134.235 8.94918 134.675 9.63549 134.979 10.4716L136.859 9.78814ZM135.08 6.97987C134.299 6.1786 133.35 5.58135 132.253 5.18228L131.569 7.06186C132.406 7.36591 133.092 7.80578 133.647 8.3756L135.08 6.97987ZM132.253 5.18228C131.157 4.78393 129.94 4.59473 128.615 4.59473V6.59473C129.751 6.59473 130.731 6.75708 131.569 7.06186L132.253 5.18228ZM128.615 4.59473H114.799V6.59473H128.615V4.59473ZM113.799 5.59473V32.5947H115.799V5.59473H113.799ZM114.799 33.5947H128.615V31.5947H114.799V33.5947ZM110.394 38V0.189453H108.394V38H110.394ZM109.394 1.18945H128.615V-0.810547H109.394V1.18945ZM128.615 1.18945C130.532 1.18945 132.225 1.48934 133.709 2.06991L134.438 0.207429C132.687 -0.477624 130.741 -0.810547 128.615 -0.810547V1.18945ZM133.721 2.07459C135.23 2.64255 136.493 3.45392 137.527 4.50345L138.952 3.10007C137.7 1.82928 136.186 0.865263 134.425 0.202757L133.721 2.07459ZM137.538 4.51424C138.587 5.54786 139.398 6.81084 139.966 8.32L141.838 7.61555C141.176 5.85517 140.212 4.34081 138.941 3.08927L137.538 4.51424ZM139.97 8.32877C140.552 9.83314 140.852 11.5279 140.852 13.4258H142.852C142.852 11.3159 142.518 9.37194 141.835 7.60678L139.97 8.32877ZM140.852 13.4258V24.7637H142.852V13.4258H140.852ZM140.852 24.7637C140.852 26.6616 140.552 28.3563 139.97 29.8607L141.835 30.5827C142.518 28.8175 142.852 26.8736 142.852 24.7637H140.852ZM139.966 29.8695C139.398 31.3798 138.585 32.6539 137.532 33.707L138.946 35.1212C140.214 33.8539 141.176 32.3331 141.838 30.5739L139.966 29.8695ZM137.532 33.707C136.496 34.743 135.228 35.5577 133.712 36.1446L134.434 38.0097C136.188 37.331 137.697 36.3703 138.946 35.1212L137.532 33.707ZM133.718 36.1425C132.231 36.7079 130.535 37 128.615 37V39C130.738 39 132.681 38.6768 134.429 38.0118L133.718 36.1425ZM128.615 37H109.394V39H128.615V37ZM150.526 0.189453V-0.810547H149.526V0.189453H150.526ZM178.08 0.189453H179.08V-0.810547H178.08V0.189453ZM178.08 5.59473V6.59473H179.08V5.59473H178.08ZM155.932 5.59473V4.59473H154.932V5.59473H155.932ZM155.932 16.4053H154.932V17.4053H155.932V16.4053ZM174.837 16.4053H175.837V15.4053H174.837V16.4053ZM174.837 21.8105V22.8105H175.837V21.8105H174.837ZM155.932 21.8105V20.8105H154.932V21.8105H155.932ZM155.932 32.5947H154.932V33.5947H155.932V32.5947ZM178.08 32.5947H179.08V31.5947H178.08V32.5947ZM178.08 38V39H179.08V38H178.08ZM150.526 38H149.526V39H150.526V38ZM150.526 1.18945H178.08V-0.810547H150.526V1.18945ZM177.08 0.189453V5.59473H179.08V0.189453H177.08ZM178.08 4.59473H155.932V6.59473H178.08V4.59473ZM154.932 5.59473V16.4053H156.932V5.59473H154.932ZM155.932 17.4053H174.837V15.4053H155.932V17.4053ZM173.837 16.4053V21.8105H175.837V16.4053H173.837ZM174.837 20.8105H155.932V22.8105H174.837V20.8105ZM154.932 21.8105V32.5947H156.932V21.8105H154.932ZM155.932 33.5947H178.08V31.5947H155.932V33.5947ZM177.08 32.5947V38H179.08V32.5947H177.08ZM178.08 37H150.526V39H178.08V37ZM151.526 38V0.189453H149.526V38H151.526ZM209.299 22.707L209.137 21.7202L207.836 21.9337L208.392 23.1291L209.299 22.707ZM216.418 38V39H217.987L217.325 37.578L216.418 38ZM210.433 38L209.526 38.4211L209.794 39H210.433V38ZM203.419 22.8916L204.326 22.4705L204.057 21.8916H203.419V22.8916ZM191.58 22.8916V21.8916H190.58V22.8916H191.58ZM191.58 38V39H192.58V38H191.58ZM186.175 38H185.175V39H186.175V38ZM186.175 0.189453V-0.810547H185.175V0.189453H186.175ZM191.58 17.4863H190.58V18.4863H191.58V17.4863ZM191.58 5.59473V4.59473H190.58V5.59473H191.58ZM215.049 13.6895C215.049 16.1953 214.513 18.0273 213.561 19.2997C212.623 20.5531 211.19 21.3834 209.137 21.7202L209.461 23.6938C211.908 23.2924 213.85 22.2506 215.162 20.4982C216.459 18.7647 217.049 16.4571 217.049 13.6895H215.049ZM208.392 23.1291L215.511 38.422L217.325 37.578L210.205 22.285L208.392 23.1291ZM216.418 37H210.433V39H216.418V37ZM211.34 37.5789L204.326 22.4705L202.512 23.3127L209.526 38.4211L211.34 37.5789ZM203.419 21.8916H191.58V23.8916H203.419V21.8916ZM190.58 22.8916V38H192.58V22.8916H190.58ZM191.58 37H186.175V39H191.58V37ZM187.175 38V0.189453H185.175V38H187.175ZM186.175 1.18945H206.873V-0.810547H186.175V1.18945ZM206.873 1.18945C209.777 1.18945 211.771 1.9167 213.047 3.19608C214.323 4.47599 215.049 6.47764 215.049 9.3916H217.049C217.049 6.1708 216.245 3.57137 214.463 1.7839C212.68 -0.00409842 210.087 -0.810547 206.873 -0.810547V1.18945ZM215.049 9.3916V13.6895H217.049V9.3916H215.049ZM191.58 18.4863H206.583V16.4863H191.58V18.4863ZM206.583 18.4863C208.134 18.4863 209.494 18.1515 210.401 17.2442L208.987 15.83C208.629 16.1884 207.915 16.4863 206.583 16.4863V18.4863ZM210.401 17.2442C211.309 16.3369 211.644 14.977 211.644 13.4258H209.644C209.644 14.7574 209.346 15.4717 208.987 15.83L210.401 17.2442ZM211.644 13.4258V9.65527H209.644V13.4258H211.644ZM211.644 9.65527C211.644 8.10406 211.309 6.74411 210.401 5.83684L208.987 7.25105C209.346 7.6094 209.644 8.32367 209.644 9.65527H211.644ZM210.401 5.83684C209.494 4.92956 208.134 4.59473 206.583 4.59473V6.59473C207.915 6.59473 208.629 6.8927 208.987 7.25105L210.401 5.83684ZM206.583 4.59473H191.58V6.59473H206.583V4.59473ZM190.58 5.59473V17.4863H192.58V5.59473H190.58ZM40.4961 71.2773L40.0806 70.3677L37.7006 71.4549L40.199 72.2322L40.4961 71.2773ZM42.6582 72.332L43.2332 71.5138L42.6582 72.332ZM44.3193 74.0986L43.4748 74.6342L43.4809 74.6436L44.3193 74.0986ZM15.8691 91H14.8691V92H15.8691V91ZM15.8691 53.1895V52.1895H14.8691V53.1895H15.8691ZM43.6338 68.2979L42.7417 67.846L42.7394 67.8506L43.6338 68.2979ZM21.1689 74.5205V73.5205H20.1689V74.5205H21.1689ZM21.1689 85.7002H20.1689V86.7002H21.1689V85.7002ZM39.4941 75.4961L38.7774 76.1935L39.4941 75.4961ZM21.1689 58.4893V57.4893H20.1689V58.4893H21.1689ZM21.1689 69.2471H20.1689V70.2471H21.1689V69.2471ZM35.6973 69.2471V70.2471H35.7175L35.7378 70.2462L35.6973 69.2471ZM38.4922 68.1924L37.7372 67.5367L37.7358 67.5382L38.4922 68.1924ZM38.4131 59.4912L37.6871 60.179L38.4131 59.4912ZM40.199 72.2322C40.8951 72.4488 41.5214 72.7554 42.0833 73.1502L43.2332 71.5138C42.4943 70.9946 41.6791 70.5981 40.7932 70.3225L40.199 72.2322ZM42.0833 73.1502C42.6184 73.5262 43.083 74.0162 43.4748 74.6342L45.1638 73.5631C44.6416 72.7396 43.9988 72.0519 43.2332 71.5138L42.0833 73.1502ZM43.4809 74.6436C43.8683 75.2396 44.1808 75.9698 44.4049 76.8502L46.3431 76.3568C46.075 75.3037 45.6844 74.3639 45.1578 73.5536L43.4809 74.6436ZM44.4049 76.8502C44.6261 77.7192 44.7432 78.7411 44.7432 79.9258H46.7432C46.7432 78.6144 46.6141 77.4214 46.3431 76.3568L44.4049 76.8502ZM44.7432 79.9258V81.8242H46.7432V79.9258H44.7432ZM44.7432 81.8242C44.7432 84.7287 44.0177 86.7233 42.7421 87.9989C41.4665 89.2746 39.4718 90 36.5674 90V92C39.7801 92 42.3734 91.1961 44.1563 89.4132C45.9393 87.6302 46.7432 85.037 46.7432 81.8242H44.7432ZM36.5674 90H15.8691V92H36.5674V90ZM16.8691 91V53.1895H14.8691V91H16.8691ZM15.8691 54.1895H35.4863V52.1895H15.8691V54.1895ZM35.4863 54.1895C38.39 54.1895 40.3843 54.9167 41.66 56.1961C42.9363 57.476 43.6621 59.4776 43.6621 62.3916H45.6621C45.6621 59.1708 44.8586 56.5714 43.0763 54.7839C41.2934 52.9959 38.6998 52.1895 35.4863 52.1895V54.1895ZM43.6621 62.3916V63.0771H45.6621V62.3916H43.6621ZM43.6621 63.0771C43.6621 65.1064 43.3336 66.6773 42.7417 67.846L44.5259 68.7497C45.305 67.2114 45.6621 65.3018 45.6621 63.0771H43.6621ZM42.7394 67.8506C42.1787 68.9719 41.3074 69.8073 40.0806 70.3677L40.9116 72.1869C42.5324 71.4466 43.7529 70.2956 44.5282 68.7451L42.7394 67.8506ZM20.1689 74.5205V85.7002H22.1689V74.5205H20.1689ZM21.1689 86.7002H36.4092V84.7002H21.1689V86.7002ZM36.4092 86.7002C37.9597 86.7002 39.3164 86.3399 40.2201 85.386L38.7682 84.0105C38.4062 84.3925 37.7063 84.7002 36.4092 84.7002V86.7002ZM40.2201 85.386C41.1041 84.4529 41.4434 83.1047 41.4434 81.5605H39.4434C39.4434 82.8641 39.1498 83.6076 38.7682 84.0105L40.2201 85.386ZM41.4434 81.5605V78.6338H39.4434V81.5605H41.4434ZM41.4434 78.6338C41.4434 77.0793 41.1071 75.7199 40.2109 74.7987L38.7774 76.1935C39.1468 76.5731 39.4434 77.3055 39.4434 78.6338H41.4434ZM40.2109 74.7987C39.3062 73.8689 37.9533 73.5205 36.4092 73.5205V75.5205C37.7127 75.5205 38.4165 75.8225 38.7774 76.1935L40.2109 74.7987ZM36.4092 73.5205H21.1689V75.5205H36.4092V73.5205ZM20.1689 58.4893V69.2471H22.1689V58.4893H20.1689ZM21.1689 70.2471H35.6973V68.2471H21.1689V70.2471ZM35.7378 70.2462C37.1735 70.188 38.4301 69.7929 39.2486 68.8465L37.7358 67.5382C37.4293 67.8927 36.8226 68.2006 35.6568 68.2479L35.7378 70.2462ZM39.2472 68.8481C40.0522 67.9212 40.3623 66.6192 40.3623 65.1338H38.3623C38.3623 66.3905 38.0924 67.1276 37.7372 67.5367L39.2472 68.8481ZM40.3623 65.1338V62.6553H38.3623V65.1338H40.3623ZM40.3623 62.6553C40.3623 61.0976 40.0248 59.7384 39.139 58.8035L37.6871 60.179C38.067 60.5799 38.3623 61.3301 38.3623 62.6553H40.3623ZM39.139 58.8035C38.2354 57.8496 36.8786 57.4893 35.3281 57.4893V59.4893C36.6253 59.4893 37.3252 59.7969 37.6871 60.179L39.139 58.8035ZM35.3281 57.4893H21.1689V59.4893H35.3281V57.4893ZM85.8213 87.7041L86.7392 88.101L86.7429 88.0922L85.8213 87.7041ZM82.9209 90.5781L82.5328 89.6564L82.524 89.6603L82.9209 90.5781ZM57.1338 90.5781L56.7369 91.496L56.7457 91.4998L57.1338 90.5781ZM55.4199 89.418L54.7128 90.1251L55.4199 89.418ZM54.2598 87.7041L53.3381 88.0922L53.3419 88.101L54.2598 87.7041ZM54.2598 56.5117L55.1777 56.9086L55.1814 56.8998L54.2598 56.5117ZM55.4199 54.7979L56.1141 55.5177L56.1206 55.5114L56.127 55.505L55.4199 54.7979ZM57.1338 53.6377L57.5307 54.5556L57.5422 54.5505L57.1338 53.6377ZM82.9209 53.6377L82.5034 54.5464L82.518 54.5531L82.5328 54.5593L82.9209 53.6377ZM84.6611 54.7979L83.954 55.505L83.9604 55.5114L83.967 55.5177L84.6611 54.7979ZM85.8213 56.5117L84.8996 56.8998L84.9034 56.9086L85.8213 56.5117ZM59.2432 58.5947V57.5947H58.2432V58.5947H59.2432ZM59.2432 85.5947H58.2432V86.5947H59.2432V85.5947ZM80.8379 85.5947V86.5947H81.8379V85.5947H80.8379ZM80.8379 58.5947H81.8379V57.5947H80.8379V58.5947ZM85.2432 85.5947C85.2432 86.2023 85.1282 86.7732 84.8997 87.316L86.7429 88.0922C87.0769 87.299 87.2432 86.4637 87.2432 85.5947H85.2432ZM84.9034 87.3072C84.6713 87.8439 84.3554 88.3095 83.954 88.7109L85.3682 90.1251C85.9512 89.5421 86.4088 88.865 86.7392 88.101L84.9034 87.3072ZM83.954 88.7109C83.5571 89.1078 83.0866 89.4233 82.5328 89.6565L83.309 91.4998C84.0911 91.1704 84.7808 90.7125 85.3682 90.1251L83.954 88.7109ZM82.524 89.6603C82.0042 89.8851 81.4455 90 80.8379 90V92C81.7068 92 82.5369 91.8337 83.3178 91.496L82.524 89.6603ZM80.8379 90H59.2432V92H80.8379V90ZM59.2432 90C58.6356 90 58.0647 89.885 57.5219 89.6565L56.7457 91.4998C57.5389 91.8337 58.3741 92 59.2432 92V90ZM57.5307 89.6603C56.9939 89.4282 56.5284 89.1122 56.127 88.7109L54.7128 90.1251C55.2958 90.7081 55.9729 91.1656 56.7369 91.496L57.5307 89.6603ZM56.127 88.7109C55.7256 88.3095 55.4097 87.8439 55.1776 87.3072L53.3419 88.101C53.6723 88.865 54.1298 89.5421 54.7128 90.1251L56.127 88.7109ZM55.1814 87.316C54.9529 86.7732 54.8379 86.2023 54.8379 85.5947H52.8379C52.8379 86.4637 53.0042 87.299 53.3381 88.0922L55.1814 87.316ZM54.8379 85.5947V58.5947H52.8379V85.5947H54.8379ZM54.8379 58.5947C54.8379 57.9871 54.9528 57.4285 55.1776 56.9086L53.3419 56.1148C53.0042 56.8958 52.8379 57.7258 52.8379 58.5947H54.8379ZM55.1814 56.8998C55.4133 56.3491 55.7252 55.8927 56.1141 55.5177L54.7258 54.078C54.1303 54.6522 53.6687 55.3384 53.3381 56.1237L55.1814 56.8998ZM56.127 55.505C56.5284 55.1036 56.9939 54.7877 57.5307 54.5556L56.7369 52.7198C55.9729 53.0502 55.2958 53.5077 54.7128 54.0907L56.127 55.505ZM57.5422 54.5505C58.0805 54.3097 58.6443 54.1895 59.2432 54.1895V52.1895C58.3654 52.1895 57.523 52.368 56.7254 52.7249L57.5422 54.5505ZM59.2432 54.1895H80.8379V52.1895H59.2432V54.1895ZM80.8379 54.1895C81.4367 54.1895 81.9881 54.3096 82.5034 54.5464L83.3384 52.729C82.5529 52.3681 81.7156 52.1895 80.8379 52.1895V54.1895ZM82.5328 54.5593C83.0866 54.7925 83.5571 55.108 83.954 55.505L85.3682 54.0907C84.7808 53.5033 84.0911 53.0454 83.309 52.7161L82.5328 54.5593ZM83.967 55.5177C84.3559 55.8927 84.6678 56.3491 84.8997 56.8998L86.7429 56.1237C86.4123 55.3384 85.9508 54.6522 85.3553 54.078L83.967 55.5177ZM84.9034 56.9086C85.1282 57.4285 85.2432 57.9871 85.2432 58.5947H87.2432C87.2432 57.7258 87.0769 56.8958 86.7392 56.1148L84.9034 56.9086ZM85.2432 58.5947V85.5947H87.2432V58.5947H85.2432ZM58.2432 58.5947V85.5947H60.2432V58.5947H58.2432ZM59.2432 86.5947H80.8379V84.5947H59.2432V86.5947ZM81.8379 85.5947V58.5947H79.8379V85.5947H81.8379ZM80.8379 57.5947H59.2432V59.5947H80.8379V57.5947ZM112.716 53.1895L113.649 52.8296L113.402 52.1895H112.716V53.1895ZM127.297 91V92H128.754L128.23 90.6402L127.297 91ZM121.892 91L120.958 91.3592L121.205 92H121.892V91ZM118.543 82.2988L119.476 81.9397L119.23 81.2988H118.543V82.2988ZM101.483 82.2988V81.2988H100.797L100.55 81.9397L101.483 82.2988ZM98.1348 91V92H98.8214L99.068 91.3592L98.1348 91ZM92.7295 91L91.7965 90.6402L91.2721 92H92.7295V91ZM107.311 53.1895V52.1895H106.624L106.378 52.8296L107.311 53.1895ZM103.54 76.8936L102.608 76.5308L102.078 77.8936H103.54V76.8936ZM116.46 76.8936V77.8936H117.918L117.393 76.5334L116.46 76.8936ZM110.026 60.2295L110.959 59.8693L110.03 57.4628L109.094 59.8668L110.026 60.2295ZM111.783 53.5493L126.364 91.3598L128.23 90.6402L113.649 52.8296L111.783 53.5493ZM127.297 90H121.892V92H127.297V90ZM122.825 90.6408L119.476 81.9397L117.61 82.658L120.958 91.3592L122.825 90.6408ZM118.543 81.2988H101.483V83.2988H118.543V81.2988ZM100.55 81.9397L97.2015 90.6408L99.068 91.3592L102.417 82.658L100.55 81.9397ZM98.1348 90H92.7295V92H98.1348V90ZM93.6625 91.3598L108.244 53.5493L106.378 52.8296L91.7965 90.6402L93.6625 91.3598ZM107.311 54.1895H112.716V52.1895H107.311V54.1895ZM103.54 77.8936H116.46V75.8936H103.54V77.8936ZM117.393 76.5334L110.959 59.8693L109.093 60.5897L115.527 77.2537L117.393 76.5334ZM109.094 59.8668L102.608 76.5308L104.472 77.2563L110.958 60.5922L109.094 59.8668ZM156.907 75.707L156.745 74.7202L155.444 74.9337L156.001 76.1291L156.907 75.707ZM164.026 91V92H165.595L164.933 90.578L164.026 91ZM158.041 91L157.134 91.4211L157.403 92H158.041V91ZM151.027 75.8916L151.934 75.4705L151.666 74.8916H151.027V75.8916ZM139.188 75.8916V74.8916H138.188V75.8916H139.188ZM139.188 91V92H140.188V91H139.188ZM133.783 91H132.783V92H133.783V91ZM133.783 53.1895V52.1895H132.783V53.1895H133.783ZM139.188 70.4863H138.188V71.4863H139.188V70.4863ZM139.188 58.5947V57.5947H138.188V58.5947H139.188ZM162.657 66.6895C162.657 69.1953 162.122 71.0273 161.169 72.2997C160.231 73.5531 158.798 74.3834 156.745 74.7202L157.069 76.6938C159.516 76.2924 161.459 75.2506 162.77 73.4982C164.068 71.7647 164.657 69.4571 164.657 66.6895H162.657ZM156.001 76.1291L163.12 91.422L164.933 90.578L157.814 75.285L156.001 76.1291ZM164.026 90H158.041V92H164.026V90ZM158.948 90.5789L151.934 75.4705L150.12 76.3127L157.134 91.4211L158.948 90.5789ZM151.027 74.8916H139.188V76.8916H151.027V74.8916ZM138.188 75.8916V91H140.188V75.8916H138.188ZM139.188 90H133.783V92H139.188V90ZM134.783 91V53.1895H132.783V91H134.783ZM133.783 54.1895H154.481V52.1895H133.783V54.1895ZM154.481 54.1895C157.385 54.1895 159.379 54.9167 160.655 56.1961C161.931 57.476 162.657 59.4776 162.657 62.3916H164.657C164.657 59.1708 163.854 56.5714 162.071 54.7839C160.289 52.9959 157.695 52.1895 154.481 52.1895V54.1895ZM162.657 62.3916V66.6895H164.657V62.3916H162.657ZM139.188 71.4863H154.191V69.4863H139.188V71.4863ZM154.191 71.4863C155.743 71.4863 157.103 71.1515 158.01 70.2442L156.596 68.83C156.237 69.1884 155.523 69.4863 154.191 69.4863V71.4863ZM158.01 70.2442C158.917 69.3369 159.252 67.977 159.252 66.4258H157.252C157.252 67.7574 156.954 68.4717 156.596 68.83L158.01 70.2442ZM159.252 66.4258V62.6553H157.252V66.4258H159.252ZM159.252 62.6553C159.252 61.1041 158.917 59.7441 158.01 58.8368L156.596 60.2511C156.954 60.6094 157.252 61.3237 157.252 62.6553H159.252ZM158.01 58.8368C157.103 57.9296 155.743 57.5947 154.191 57.5947V59.5947C155.523 59.5947 156.237 59.8927 156.596 60.2511L158.01 58.8368ZM154.191 57.5947H139.188V59.5947H154.191V57.5947ZM138.188 58.5947V70.4863H140.188V58.5947H138.188ZM199.227 63.1299L198.287 63.4716L199.227 63.1299ZM197.671 60.6777L196.955 61.3756L196.964 61.3849L196.973 61.394L197.671 60.6777ZM195.219 59.1221L194.877 60.0619L195.219 59.1221ZM178.106 58.5947V57.5947H177.106V58.5947H178.106ZM178.106 85.5947H177.106V86.5947H178.106V85.5947ZM172.701 91H171.701V92H172.701V91ZM172.701 53.1895V52.1895H171.701V53.1895H172.701ZM197.381 54.1387L197.016 55.07L197.029 55.0746L197.381 54.1387ZM201.547 56.8018L200.834 57.5034L200.84 57.5089L200.845 57.5142L201.547 56.8018ZM204.21 60.9678L203.274 61.32L203.277 61.3288L204.21 60.9678ZM204.21 83.2217L203.277 82.8607L203.274 82.8695L204.21 83.2217ZM197.381 90.0771L197.736 91.0118L197.742 91.0097L197.381 90.0771ZM191.923 86.5947C194.615 86.5947 196.836 85.8659 198.431 84.2716L197.017 82.8573C195.904 83.97 194.258 84.5947 191.923 84.5947V86.5947ZM198.431 84.2716C200.025 82.6772 200.754 80.4563 200.754 77.7637H198.754C198.754 80.0984 198.129 81.7446 197.017 82.8573L198.431 84.2716ZM200.754 77.7637V66.4258H198.754V77.7637H200.754ZM200.754 66.4258C200.754 65.101 200.565 63.8836 200.166 62.7881L198.287 63.4716C198.592 64.3098 198.754 65.2896 198.754 66.4258H200.754ZM200.166 62.7881C199.767 61.6907 199.17 60.7422 198.369 59.9615L196.973 61.394C197.543 61.9492 197.983 62.6355 198.287 63.4716L200.166 62.7881ZM198.387 59.9799C197.606 59.1786 196.658 58.5814 195.56 58.1823L194.877 60.0619C195.713 60.3659 196.399 60.8058 196.955 61.3756L198.387 59.9799ZM195.56 58.1823C194.465 57.7839 193.248 57.5947 191.923 57.5947V59.5947C193.059 59.5947 194.039 59.7571 194.877 60.0619L195.56 58.1823ZM191.923 57.5947H178.106V59.5947H191.923V57.5947ZM177.106 58.5947V85.5947H179.106V58.5947H177.106ZM178.106 86.5947H191.923V84.5947H178.106V86.5947ZM173.701 91V53.1895H171.701V91H173.701ZM172.701 54.1895H191.923V52.1895H172.701V54.1895ZM191.923 54.1895C193.84 54.1895 195.533 54.4893 197.016 55.0699L197.745 53.2074C195.995 52.5224 194.049 52.1895 191.923 52.1895V54.1895ZM197.029 55.0746C198.538 55.6425 199.801 56.4539 200.834 57.5034L202.259 56.1001C201.008 54.8293 199.493 53.8653 197.733 53.2028L197.029 55.0746ZM200.845 57.5142C201.895 58.5479 202.706 59.8108 203.274 61.32L205.146 60.6155C204.483 58.8552 203.519 57.3408 202.249 56.0893L200.845 57.5142ZM203.277 61.3288C203.86 62.8331 204.159 64.5278 204.159 66.4258H206.159C206.159 64.3159 205.826 62.3719 205.143 60.6068L203.277 61.3288ZM204.159 66.4258V77.7637H206.159V66.4258H204.159ZM204.159 77.7637C204.159 79.6616 203.86 81.3563 203.277 82.8607L205.143 83.5827C205.826 81.8175 206.159 79.8736 206.159 77.7637H204.159ZM203.274 82.8695C202.706 84.3798 201.893 85.6539 200.84 86.707L202.254 88.1212C203.521 86.8539 204.484 85.3331 205.146 83.5739L203.274 82.8695ZM200.84 86.707C199.804 87.743 198.536 88.5577 197.02 89.1446L197.742 91.0097C199.495 90.331 201.005 89.3703 202.254 88.1212L200.84 86.707ZM197.025 89.1425C195.539 89.7079 193.843 90 191.923 90V92C194.046 92 195.988 91.6768 197.736 91.0118L197.025 89.1425ZM191.923 90H172.701V92H191.923V90Z" fill="black" mask="url(#path-1-inside-1_10_378)"/>
</g>
<defs>
<filter id="filter0_d_10_378" x="0.610352" y="0.189453" width="219.808" height="102.811" filterUnits="userSpaceOnUse" color-interpolation-filters="sRGB">
<feFlood flood-opacity="0" result="BackgroundImageFix"/>
<feColorMatrix in="SourceAlpha" type="matrix" values="0 0 0 0 0 0 0 0 0 0 0 0 0 0 0 0 0 0 127 0" result="hardAlpha"/>
<feOffset dy="8"/>
<feGaussianBlur stdDeviation="2"/>
<feComposite in2="hardAlpha" operator="out"/>
<feColorMatrix type="matrix" values="0 0 0 0 0.0627451 0 0 0 0 0.239216 0 0 0 0 0.243137 0 0 0 1 0"/>
<feBlend mode="normal" in2="BackgroundImageFix" result="effect1_dropShadow_10_378"/>
<feBlend mode="normal" in="SourceGraphic" in2="effect1_dropShadow_10_378" result="shape"/>
</filter>
</defs>
</svg>
