<svg width="33" height="30" viewBox="0 0 33 30" fill="none" xmlns="http://www.w3.org/2000/svg">
<path fill-rule="evenodd" clip-rule="evenodd" d="M7.44029 5.75989H11.4003L11.4003 7.07989C11.4918 8.04729 11.802 8.31369 12.7203 8.39989H14.0403V12.3599H12.7203C11.7529 12.4514 11.4865 12.7616 11.4003 13.6799V14.9999L7.44029 14.9999V13.6799C7.34877 12.7125 7.03855 12.4461 6.12029 12.3599H4.80029V8.39989H6.12029C7.0877 8.30836 7.3541 7.99815 7.44029 7.07989L7.44029 5.75989ZM8.76029 12.3599C7.84203 12.2737 7.53182 12.0073 7.44029 11.0399V9.71989C7.52649 8.80163 7.79289 8.49141 8.76029 8.39989L10.0803 8.39989C10.9986 8.48608 11.3088 8.75249 11.4003 9.71989V11.0399C11.3141 11.9581 11.0477 12.2684 10.0803 12.3599H8.76029ZM7.44029 17.6399H11.4003L11.4003 18.9599C11.4918 19.9273 11.802 20.1937 12.7203 20.2799H14.0403V24.2399H12.7203C11.7529 24.3314 11.4865 24.6416 11.4003 25.5599V26.8799H7.44029V25.5599C7.34877 24.5925 7.03855 24.3261 6.12029 24.2399H4.80029V20.2799H6.12029C7.0877 20.1884 7.3541 19.8781 7.44029 18.9599L7.44029 17.6399ZM8.76029 24.2399C7.84203 24.1537 7.53182 23.8873 7.44029 22.9199V21.5999C7.52649 20.6816 7.79289 20.3714 8.76029 20.2799H10.0803C10.9986 20.3661 11.3088 20.6325 11.4003 21.5999V22.9199C11.3141 23.8381 11.0477 24.1484 10.0803 24.2399H8.76029ZM28.5603 8.39989L16.6803 8.39989V11.0399L28.5603 11.0399V8.39989ZM16.6803 21.5999H28.5603V24.2399H16.6803V21.5999ZM23.2803 14.9999L16.6803 14.9999V17.6399H23.2803V14.9999Z" fill="black"/>
</svg>
