<svg width="32" height="29" viewBox="0 0 32 29" fill="none" xmlns="http://www.w3.org/2000/svg">
<path fill-rule="evenodd" clip-rule="evenodd" d="M7.25457 4.04382H11.0792L11.0792 5.23182C11.1676 6.10249 11.4672 6.34225 12.354 6.41982H13.6289V9.98382H12.354C11.4197 10.0662 11.1624 10.3454 11.0792 11.1718V12.3598L7.25457 12.3598V11.1718C7.16618 10.3012 6.86657 10.0614 5.9797 9.98382H4.70483V6.41982H5.9797C6.91403 6.33745 7.17132 6.05826 7.25457 5.23182L7.25457 4.04382ZM8.52944 9.98382C7.64257 9.90625 7.34296 9.66649 7.25457 8.79582V7.60782C7.33782 6.78139 7.59511 6.50219 8.52944 6.41982L9.80431 6.41982C10.6912 6.4974 10.9908 6.73716 11.0792 7.60782V8.79582C10.9959 9.62226 10.7386 9.90145 9.80431 9.98382H8.52944ZM23.8279 19.4878C24.7147 19.5654 25.0143 19.8052 25.1027 20.6758V21.8638C25.0195 22.6903 24.7622 22.9695 23.8279 23.0518H22.553C21.6661 22.9742 21.3665 22.7345 21.2781 21.8638V20.6758C21.3614 19.8494 21.6187 19.5702 22.553 19.4878H23.8279ZM18.7284 23.0518H20.0033C20.8901 23.1294 21.1897 23.3692 21.2781 24.2398V25.4278H25.1027V24.2398C25.186 23.4134 25.4433 23.1342 26.3776 23.0518H27.6525V19.4878H26.3776C25.4907 19.4102 25.1911 19.1705 25.1027 18.2998V17.1118H21.2781V18.2998C21.1949 19.1263 20.9376 19.4055 20.0033 19.4878H18.7284V23.0518ZM12.354 20.6758V19.4878C12.4373 18.6614 12.6946 18.3822 13.6289 18.2998H14.9038V17.1118C14.987 16.2854 15.2443 16.0062 16.1786 15.9238H17.4535V14.7358C17.5368 13.9094 17.7941 13.6302 18.7284 13.5478H20.0033V12.3598C20.0865 11.5334 20.3438 11.2542 21.2781 11.1718H22.553V9.98382C22.6362 9.15739 22.8935 8.87819 23.8279 8.79582H25.1027V6.41982H22.553V7.60782C22.4697 8.43426 22.2124 8.71345 21.2781 8.79582H20.0033V9.98382C19.92 10.8103 19.6627 11.0895 18.7284 11.1718H17.4535V12.3598C17.3703 13.1863 17.113 13.4655 16.1786 13.5478H14.9038V14.7358C14.8205 15.5623 14.5632 15.8415 13.6289 15.9238H12.354V17.1118C12.2708 17.9383 12.0135 18.2175 11.0792 18.2998H9.80431L9.80431 19.4878C9.72106 20.3143 9.46376 20.5935 8.52944 20.6758H7.25457L7.25457 23.0518H9.80431V21.8638C9.88755 21.0374 10.1448 20.7582 11.0792 20.6758H12.354Z" fill="black"/>
</svg>
