<svg width="306" height="50" viewBox="0 0 306 50" fill="none" xmlns="http://www.w3.org/2000/svg">
<g filter="url(#filter0_d_23_223)">
<mask id="path-1-inside-1_23_223" fill="white">
<path d="M4.68799 38V0.889648H25.0029C31.0068 0.889648 34.0088 3.90023 34.0088 9.92139V15.2007C34.0088 21.2218 31.0068 24.2324 25.0029 24.2324H9.99316V38H4.68799ZM9.99316 18.9272H24.7183C26.133 18.9272 27.1509 18.6167 27.772 17.9956C28.3931 17.3745 28.7036 16.3566 28.7036 14.9419V10.1802C28.7036 8.76546 28.3931 7.74756 27.772 7.12646C27.1509 6.50537 26.133 6.19482 24.7183 6.19482H9.99316V18.9272ZM70.7568 14.1396C70.7568 19.3154 68.5485 22.2656 64.1318 22.9902L71.1191 38H65.2446L58.3608 23.1714H46.7412V38H41.436V0.889648H61.751C67.7549 0.889648 70.7568 3.90023 70.7568 9.92139V14.1396ZM46.7412 17.8662H61.4663C62.881 17.8662 63.8989 17.5557 64.52 16.9346C65.1411 16.3135 65.4517 15.2956 65.4517 13.8809V10.1802C65.4517 8.76546 65.1411 7.74756 64.52 7.12646C63.8989 6.50537 62.881 6.19482 61.4663 6.19482H46.7412V17.8662ZM111.438 32.6948C111.438 33.4194 111.3 34.1095 111.024 34.7651C110.748 35.4035 110.369 35.9642 109.886 36.4473C109.403 36.9303 108.833 37.3099 108.178 37.5859C107.539 37.862 106.858 38 106.133 38H84.9385C84.2139 38 83.5238 37.862 82.8682 37.5859C82.2298 37.3099 81.6691 36.9303 81.186 36.4473C80.703 35.9642 80.3234 35.4035 80.0474 34.7651C79.7713 34.1095 79.6333 33.4194 79.6333 32.6948V6.19482C79.6333 5.47021 79.7713 4.78874 80.0474 4.15039C80.3234 3.49479 80.703 2.93408 81.186 2.46826C81.6691 1.98519 82.2298 1.60563 82.8682 1.32959C83.5238 1.0363 84.2139 0.889648 84.9385 0.889648H106.133C106.858 0.889648 107.539 1.0363 108.178 1.32959C108.833 1.60563 109.403 1.98519 109.886 2.46826C110.369 2.93408 110.748 3.49479 111.024 4.15039C111.3 4.78874 111.438 5.47021 111.438 6.19482V32.6948ZM84.9385 6.19482V32.6948H106.133V6.19482H84.9385ZM120.988 6.19482C120.988 5.47021 121.126 4.78874 121.402 4.15039C121.678 3.49479 122.057 2.93408 122.541 2.46826C123.024 1.98519 123.584 1.60563 124.223 1.32959C124.878 1.0363 125.568 0.889648 126.293 0.889648H146.427C147.151 0.889648 147.833 1.0363 148.471 1.32959C149.127 1.60563 149.696 1.98519 150.179 2.46826C150.662 2.93408 151.042 3.49479 151.318 4.15039C151.594 4.78874 151.732 5.47021 151.732 6.19482V10.9824H146.427V6.19482H126.293V32.6948H146.427V23.689H136.36V18.3838H151.732V32.6948C151.732 33.4194 151.594 34.1095 151.318 34.7651C151.042 35.4035 150.662 35.9642 150.179 36.4473C149.696 36.9303 149.127 37.3099 148.471 37.5859C147.833 37.862 147.151 38 146.427 38H126.293C125.568 38 124.878 37.862 124.223 37.5859C123.584 37.3099 123.024 36.9303 122.541 36.4473C122.057 35.9642 121.678 35.4035 121.402 34.7651C121.126 34.1095 120.988 33.4194 120.988 32.6948V6.19482ZM190.576 14.1396C190.576 19.3154 188.368 22.2656 183.951 22.9902L190.938 38H185.064L178.18 23.1714H166.561V38H161.255V0.889648H181.57C187.574 0.889648 190.576 3.90023 190.576 9.92139V14.1396ZM166.561 17.8662H181.286C182.7 17.8662 183.718 17.5557 184.339 16.9346C184.96 16.3135 185.271 15.2956 185.271 13.8809V10.1802C185.271 8.76546 184.96 7.74756 184.339 7.12646C183.718 6.50537 182.7 6.19482 181.286 6.19482H166.561V17.8662ZM199.453 0.889648H226.496V6.19482H204.758V16.8052H223.313V22.1104H204.758V32.6948H226.496V38H199.453V0.889648ZM239.746 22.1104C239.021 22.1104 238.331 21.9723 237.676 21.6963C237.037 21.403 236.477 21.0234 235.994 20.5576C235.511 20.0745 235.131 19.5138 234.855 18.8755C234.579 18.2199 234.441 17.5298 234.441 16.8052V6.19482C234.441 5.47021 234.579 4.78874 234.855 4.15039C235.131 3.49479 235.511 2.93408 235.994 2.46826C236.477 1.98519 237.037 1.60563 237.676 1.32959C238.331 1.0363 239.021 0.889648 239.746 0.889648H257.758C258.482 0.889648 259.164 1.0363 259.802 1.32959C260.458 1.60563 261.027 1.98519 261.51 2.46826C261.993 2.93408 262.373 3.49479 262.649 4.15039C262.925 4.78874 263.063 5.47021 263.063 6.19482V10.9824H257.758V6.19482H239.746V16.8052H257.758C258.482 16.8052 259.164 16.9432 259.802 17.2192C260.458 17.4953 261.027 17.8748 261.51 18.3579C261.993 18.841 262.373 19.4103 262.649 20.0659C262.925 20.7043 263.063 21.3857 263.063 22.1104V32.6948C263.063 33.4194 262.925 34.1095 262.649 34.7651C262.373 35.4035 261.993 35.9642 261.51 36.4473C261.027 36.9303 260.458 37.3099 259.802 37.5859C259.164 37.862 258.482 38 257.758 38H239.229C238.504 38 237.814 37.862 237.158 37.5859C236.52 37.3099 235.959 36.9303 235.476 36.4473C234.993 35.9642 234.613 35.4035 234.337 34.7651C234.061 34.1095 233.923 33.4194 233.923 32.6948V27.9331H239.229V32.6948H257.758V22.1104H239.746ZM277.943 22.1104C277.219 22.1104 276.529 21.9723 275.873 21.6963C275.235 21.403 274.674 21.0234 274.191 20.5576C273.708 20.0745 273.328 19.5138 273.052 18.8755C272.776 18.2199 272.638 17.5298 272.638 16.8052V6.19482C272.638 5.47021 272.776 4.78874 273.052 4.15039C273.328 3.49479 273.708 2.93408 274.191 2.46826C274.674 1.98519 275.235 1.60563 275.873 1.32959C276.529 1.0363 277.219 0.889648 277.943 0.889648H295.955C296.68 0.889648 297.361 1.0363 298 1.32959C298.655 1.60563 299.224 1.98519 299.708 2.46826C300.191 2.93408 300.57 3.49479 300.846 4.15039C301.122 4.78874 301.26 5.47021 301.26 6.19482V10.9824H295.955V6.19482H277.943V16.8052H295.955C296.68 16.8052 297.361 16.9432 298 17.2192C298.655 17.4953 299.224 17.8748 299.708 18.3579C300.191 18.841 300.57 19.4103 300.846 20.0659C301.122 20.7043 301.26 21.3857 301.26 22.1104V32.6948C301.26 33.4194 301.122 34.1095 300.846 34.7651C300.57 35.4035 300.191 35.9642 299.708 36.4473C299.224 36.9303 298.655 37.3099 298 37.5859C297.361 37.862 296.68 38 295.955 38H277.426C276.701 38 276.011 37.862 275.355 37.5859C274.717 37.3099 274.156 36.9303 273.673 36.4473C273.19 35.9642 272.811 35.4035 272.535 34.7651C272.259 34.1095 272.121 33.4194 272.121 32.6948V27.9331H277.426V32.6948H295.955V22.1104H277.943Z"/>
</mask>
<path d="M4.68799 38V0.889648H25.0029C31.0068 0.889648 34.0088 3.90023 34.0088 9.92139V15.2007C34.0088 21.2218 31.0068 24.2324 25.0029 24.2324H9.99316V38H4.68799ZM9.99316 18.9272H24.7183C26.133 18.9272 27.1509 18.6167 27.772 17.9956C28.3931 17.3745 28.7036 16.3566 28.7036 14.9419V10.1802C28.7036 8.76546 28.3931 7.74756 27.772 7.12646C27.1509 6.50537 26.133 6.19482 24.7183 6.19482H9.99316V18.9272ZM70.7568 14.1396C70.7568 19.3154 68.5485 22.2656 64.1318 22.9902L71.1191 38H65.2446L58.3608 23.1714H46.7412V38H41.436V0.889648H61.751C67.7549 0.889648 70.7568 3.90023 70.7568 9.92139V14.1396ZM46.7412 17.8662H61.4663C62.881 17.8662 63.8989 17.5557 64.52 16.9346C65.1411 16.3135 65.4517 15.2956 65.4517 13.8809V10.1802C65.4517 8.76546 65.1411 7.74756 64.52 7.12646C63.8989 6.50537 62.881 6.19482 61.4663 6.19482H46.7412V17.8662ZM111.438 32.6948C111.438 33.4194 111.3 34.1095 111.024 34.7651C110.748 35.4035 110.369 35.9642 109.886 36.4473C109.403 36.9303 108.833 37.3099 108.178 37.5859C107.539 37.862 106.858 38 106.133 38H84.9385C84.2139 38 83.5238 37.862 82.8682 37.5859C82.2298 37.3099 81.6691 36.9303 81.186 36.4473C80.703 35.9642 80.3234 35.4035 80.0474 34.7651C79.7713 34.1095 79.6333 33.4194 79.6333 32.6948V6.19482C79.6333 5.47021 79.7713 4.78874 80.0474 4.15039C80.3234 3.49479 80.703 2.93408 81.186 2.46826C81.6691 1.98519 82.2298 1.60563 82.8682 1.32959C83.5238 1.0363 84.2139 0.889648 84.9385 0.889648H106.133C106.858 0.889648 107.539 1.0363 108.178 1.32959C108.833 1.60563 109.403 1.98519 109.886 2.46826C110.369 2.93408 110.748 3.49479 111.024 4.15039C111.3 4.78874 111.438 5.47021 111.438 6.19482V32.6948ZM84.9385 6.19482V32.6948H106.133V6.19482H84.9385ZM120.988 6.19482C120.988 5.47021 121.126 4.78874 121.402 4.15039C121.678 3.49479 122.057 2.93408 122.541 2.46826C123.024 1.98519 123.584 1.60563 124.223 1.32959C124.878 1.0363 125.568 0.889648 126.293 0.889648H146.427C147.151 0.889648 147.833 1.0363 148.471 1.32959C149.127 1.60563 149.696 1.98519 150.179 2.46826C150.662 2.93408 151.042 3.49479 151.318 4.15039C151.594 4.78874 151.732 5.47021 151.732 6.19482V10.9824H146.427V6.19482H126.293V32.6948H146.427V23.689H136.36V18.3838H151.732V32.6948C151.732 33.4194 151.594 34.1095 151.318 34.7651C151.042 35.4035 150.662 35.9642 150.179 36.4473C149.696 36.9303 149.127 37.3099 148.471 37.5859C147.833 37.862 147.151 38 146.427 38H126.293C125.568 38 124.878 37.862 124.223 37.5859C123.584 37.3099 123.024 36.9303 122.541 36.4473C122.057 35.9642 121.678 35.4035 121.402 34.7651C121.126 34.1095 120.988 33.4194 120.988 32.6948V6.19482ZM190.576 14.1396C190.576 19.3154 188.368 22.2656 183.951 22.9902L190.938 38H185.064L178.18 23.1714H166.561V38H161.255V0.889648H181.57C187.574 0.889648 190.576 3.90023 190.576 9.92139V14.1396ZM166.561 17.8662H181.286C182.7 17.8662 183.718 17.5557 184.339 16.9346C184.96 16.3135 185.271 15.2956 185.271 13.8809V10.1802C185.271 8.76546 184.96 7.74756 184.339 7.12646C183.718 6.50537 182.7 6.19482 181.286 6.19482H166.561V17.8662ZM199.453 0.889648H226.496V6.19482H204.758V16.8052H223.313V22.1104H204.758V32.6948H226.496V38H199.453V0.889648ZM239.746 22.1104C239.021 22.1104 238.331 21.9723 237.676 21.6963C237.037 21.403 236.477 21.0234 235.994 20.5576C235.511 20.0745 235.131 19.5138 234.855 18.8755C234.579 18.2199 234.441 17.5298 234.441 16.8052V6.19482C234.441 5.47021 234.579 4.78874 234.855 4.15039C235.131 3.49479 235.511 2.93408 235.994 2.46826C236.477 1.98519 237.037 1.60563 237.676 1.32959C238.331 1.0363 239.021 0.889648 239.746 0.889648H257.758C258.482 0.889648 259.164 1.0363 259.802 1.32959C260.458 1.60563 261.027 1.98519 261.51 2.46826C261.993 2.93408 262.373 3.49479 262.649 4.15039C262.925 4.78874 263.063 5.47021 263.063 6.19482V10.9824H257.758V6.19482H239.746V16.8052H257.758C258.482 16.8052 259.164 16.9432 259.802 17.2192C260.458 17.4953 261.027 17.8748 261.51 18.3579C261.993 18.841 262.373 19.4103 262.649 20.0659C262.925 20.7043 263.063 21.3857 263.063 22.1104V32.6948C263.063 33.4194 262.925 34.1095 262.649 34.7651C262.373 35.4035 261.993 35.9642 261.51 36.4473C261.027 36.9303 260.458 37.3099 259.802 37.5859C259.164 37.862 258.482 38 257.758 38H239.229C238.504 38 237.814 37.862 237.158 37.5859C236.52 37.3099 235.959 36.9303 235.476 36.4473C234.993 35.9642 234.613 35.4035 234.337 34.7651C234.061 34.1095 233.923 33.4194 233.923 32.6948V27.9331H239.229V32.6948H257.758V22.1104H239.746ZM277.943 22.1104C277.219 22.1104 276.529 21.9723 275.873 21.6963C275.235 21.403 274.674 21.0234 274.191 20.5576C273.708 20.0745 273.328 19.5138 273.052 18.8755C272.776 18.2199 272.638 17.5298 272.638 16.8052V6.19482C272.638 5.47021 272.776 4.78874 273.052 4.15039C273.328 3.49479 273.708 2.93408 274.191 2.46826C274.674 1.98519 275.235 1.60563 275.873 1.32959C276.529 1.0363 277.219 0.889648 277.943 0.889648H295.955C296.68 0.889648 297.361 1.0363 298 1.32959C298.655 1.60563 299.224 1.98519 299.708 2.46826C300.191 2.93408 300.57 3.49479 300.846 4.15039C301.122 4.78874 301.26 5.47021 301.26 6.19482V10.9824H295.955V6.19482H277.943V16.8052H295.955C296.68 16.8052 297.361 16.9432 298 17.2192C298.655 17.4953 299.224 17.8748 299.708 18.3579C300.191 18.841 300.57 19.4103 300.846 20.0659C301.122 20.7043 301.26 21.3857 301.26 22.1104V32.6948C301.26 33.4194 301.122 34.1095 300.846 34.7651C300.57 35.4035 300.191 35.9642 299.708 36.4473C299.224 36.9303 298.655 37.3099 298 37.5859C297.361 37.862 296.68 38 295.955 38H277.426C276.701 38 276.011 37.862 275.355 37.5859C274.717 37.3099 274.156 36.9303 273.673 36.4473C273.19 35.9642 272.811 35.4035 272.535 34.7651C272.259 34.1095 272.121 33.4194 272.121 32.6948V27.9331H277.426V32.6948H295.955V22.1104H277.943Z" fill="#43FFFF"/>
<path d="M4.68799 38H3.68799V39H4.68799V38ZM4.68799 0.889648V-0.110352H3.68799V0.889648H4.68799ZM9.99316 24.2324V23.2324H8.99316V24.2324H9.99316ZM9.99316 38V39H10.9932V38H9.99316ZM9.99316 18.9272H8.99316V19.9272H9.99316V18.9272ZM9.99316 6.19482V5.19482H8.99316V6.19482H9.99316ZM5.68799 38V0.889648H3.68799V38H5.68799ZM4.68799 1.88965H25.0029V-0.110352H4.68799V1.88965ZM25.0029 1.88965C27.85 1.88965 29.8018 2.60269 31.0492 3.85367C32.2971 5.10519 33.0088 7.06423 33.0088 9.92139H35.0088C35.0088 6.75739 34.2195 4.20056 32.4654 2.44149C30.7109 0.681896 28.1598 -0.110352 25.0029 -0.110352V1.88965ZM33.0088 9.92139V15.2007H35.0088V9.92139H33.0088ZM33.0088 15.2007C33.0088 18.0578 32.2971 20.0169 31.0492 21.2684C29.8018 22.5194 27.85 23.2324 25.0029 23.2324V25.2324C28.1598 25.2324 30.7109 24.4402 32.4654 22.6806C34.2195 20.9215 35.0088 18.3647 35.0088 15.2007H33.0088ZM25.0029 23.2324H9.99316V25.2324H25.0029V23.2324ZM8.99316 24.2324V38H10.9932V24.2324H8.99316ZM9.99316 37H4.68799V39H9.99316V37ZM9.99316 19.9272H24.7183V17.9272H9.99316V19.9272ZM24.7183 19.9272C26.2428 19.9272 27.5835 19.5983 28.4791 18.7027L27.0649 17.2885C26.7182 17.6351 26.0232 17.9272 24.7183 17.9272V19.9272ZM28.4791 18.7027C29.3746 17.8072 29.7036 16.4664 29.7036 14.9419H27.7036C27.7036 16.2468 27.4115 16.9419 27.0649 17.2885L28.4791 18.7027ZM29.7036 14.9419V10.1802H27.7036V14.9419H29.7036ZM29.7036 10.1802C29.7036 8.65566 29.3746 7.31492 28.4791 6.41936L27.0649 7.83357C27.4115 8.1802 27.7036 8.87527 27.7036 10.1802H29.7036ZM28.4791 6.41936C27.5835 5.5238 26.2428 5.19482 24.7183 5.19482V7.19482C26.0232 7.19482 26.7182 7.48694 27.0649 7.83357L28.4791 6.41936ZM24.7183 5.19482H9.99316V7.19482H24.7183V5.19482ZM8.99316 6.19482V18.9272H10.9932V6.19482H8.99316ZM64.1318 22.9902L63.9699 22.0034L62.6688 22.2169L63.2253 23.4123L64.1318 22.9902ZM71.1191 38V39H72.6877L72.0257 37.578L71.1191 38ZM65.2446 38L64.3376 38.4211L64.6064 39H65.2446V38ZM58.3608 23.1714L59.2679 22.7503L58.9991 22.1714H58.3608V23.1714ZM46.7412 23.1714V22.1714H45.7412V23.1714H46.7412ZM46.7412 38V39H47.7412V38H46.7412ZM41.436 38H40.436V39H41.436V38ZM41.436 0.889648V-0.110352H40.436V0.889648H41.436ZM46.7412 17.8662H45.7412V18.8662H46.7412V17.8662ZM46.7412 6.19482V5.19482H45.7412V6.19482H46.7412ZM69.7568 14.1396C69.7568 16.5966 69.2316 18.3903 68.3 19.6349C67.3826 20.8605 65.9813 21.6734 63.9699 22.0034L64.2937 23.977C66.6991 23.5824 68.6102 22.558 69.9011 20.8334C71.1779 19.1277 71.7568 16.8584 71.7568 14.1396H69.7568ZM63.2253 23.4123L70.2126 38.422L72.0257 37.578L65.0384 22.5682L63.2253 23.4123ZM71.1191 37H65.2446V39H71.1191V37ZM66.1517 37.5789L59.2679 22.7503L57.4538 23.5925L64.3376 38.4211L66.1517 37.5789ZM58.3608 22.1714H46.7412V24.1714H58.3608V22.1714ZM45.7412 23.1714V38H47.7412V23.1714H45.7412ZM46.7412 37H41.436V39H46.7412V37ZM42.436 38V0.889648H40.436V38H42.436ZM41.436 1.88965H61.751V-0.110352H41.436V1.88965ZM61.751 1.88965C64.5981 1.88965 66.5499 2.60269 67.7972 3.85367C69.0452 5.10519 69.7568 7.06423 69.7568 9.92139H71.7568C71.7568 6.75739 70.9675 4.20056 69.2135 2.44149C67.4589 0.681896 64.9078 -0.110352 61.751 -0.110352V1.88965ZM69.7568 9.92139V14.1396H71.7568V9.92139H69.7568ZM46.7412 18.8662H61.4663V16.8662H46.7412V18.8662ZM61.4663 18.8662C62.9908 18.8662 64.3316 18.5372 65.2271 17.6417L63.8129 16.2275C63.4663 16.5741 62.7712 16.8662 61.4663 16.8662V18.8662ZM65.2271 17.6417C66.1227 16.7461 66.4517 15.4054 66.4517 13.8809H64.4517C64.4517 15.1858 64.1595 15.8808 63.8129 16.2275L65.2271 17.6417ZM66.4517 13.8809V10.1802H64.4517V13.8809H66.4517ZM66.4517 10.1802C66.4517 8.65566 66.1227 7.31492 65.2271 6.41936L63.8129 7.83357C64.1595 8.1802 64.4517 8.87527 64.4517 10.1802H66.4517ZM65.2271 6.41936C64.3316 5.5238 62.9908 5.19482 61.4663 5.19482V7.19482C62.7712 7.19482 63.4663 7.48694 63.8129 7.83357L65.2271 6.41936ZM61.4663 5.19482H46.7412V7.19482H61.4663V5.19482ZM45.7412 6.19482V17.8662H47.7412V6.19482H45.7412ZM111.024 34.7651L111.942 35.1621L111.946 35.1532L111.024 34.7651ZM108.178 37.5859L107.79 36.6643L107.781 36.6681L108.178 37.5859ZM82.8682 37.5859L82.4712 38.5038L82.4801 38.5076L82.8682 37.5859ZM81.186 36.4473L80.4789 37.1544L81.186 36.4473ZM80.0474 34.7651L79.1257 35.1532L79.1295 35.162L80.0474 34.7651ZM80.0474 4.15039L80.9653 4.54732L80.969 4.53845L80.0474 4.15039ZM81.186 2.46826L81.8802 3.18811L81.8867 3.1818L81.8931 3.17537L81.186 2.46826ZM82.8682 1.32959L83.2651 2.24752L83.2765 2.24241L82.8682 1.32959ZM108.178 1.32959L107.76 2.23827L107.775 2.24498L107.79 2.25122L108.178 1.32959ZM109.886 2.46826L109.179 3.17537L109.185 3.1818L109.192 3.18811L109.886 2.46826ZM111.024 4.15039L110.103 4.53847L110.107 4.5473L111.024 4.15039ZM84.9385 6.19482V5.19482H83.9385V6.19482H84.9385ZM84.9385 32.6948H83.9385V33.6948H84.9385V32.6948ZM106.133 32.6948V33.6948H107.133V32.6948H106.133ZM106.133 6.19482H107.133V5.19482H106.133V6.19482ZM110.438 32.6948C110.438 33.2887 110.326 33.8466 110.103 34.3771L111.946 35.1532C112.275 34.3724 112.438 33.5502 112.438 32.6948H110.438ZM110.107 34.3682C109.88 34.8929 109.571 35.3479 109.179 35.7402L110.593 37.1544C111.167 36.5805 111.617 35.914 111.942 35.162L110.107 34.3682ZM109.179 35.7402C108.791 36.128 108.331 36.4364 107.79 36.6643L108.566 38.5076C109.336 38.1834 110.015 37.7327 110.593 37.1544L109.179 35.7402ZM107.781 36.6681C107.273 36.8877 106.727 37 106.133 37V39C106.989 39 107.806 38.8363 108.575 38.5038L107.781 36.6681ZM106.133 37H84.9385V39H106.133V37ZM84.9385 37C84.3446 37 83.7867 36.8876 83.2562 36.6643L82.4801 38.5076C83.2609 38.8363 84.0831 39 84.9385 39V37ZM83.2651 36.6681C82.7404 36.4412 82.2854 36.1324 81.8931 35.7402L80.4789 37.1544C81.0528 37.7283 81.7193 38.1786 82.4713 38.5038L83.2651 36.6681ZM81.8931 35.7402C81.5009 35.3479 81.1921 34.8929 80.9652 34.3682L79.1295 35.162C79.4547 35.914 79.905 36.5805 80.4789 37.1544L81.8931 35.7402ZM80.969 34.3771C80.7457 33.8466 80.6333 33.2887 80.6333 32.6948H78.6333C78.6333 33.5502 78.797 34.3724 79.1257 35.1532L80.969 34.3771ZM80.6333 32.6948V6.19482H78.6333V32.6948H80.6333ZM80.6333 6.19482C80.6333 5.6009 80.7456 5.05509 80.9652 4.5473L79.1295 3.75348C78.797 4.52239 78.6333 5.33953 78.6333 6.19482H80.6333ZM80.969 4.53845C81.1957 4.0001 81.5004 3.55432 81.8802 3.18811L80.4919 1.74842C79.9055 2.31385 79.4511 2.98948 79.1257 3.76233L80.969 4.53845ZM81.8931 3.17537C82.2854 2.78311 82.7404 2.47435 83.2651 2.24745L82.4713 0.411733C81.7193 0.736912 81.0528 1.18727 80.4789 1.76115L81.8931 3.17537ZM83.2765 2.24241C83.8025 2.00711 84.3533 1.88965 84.9385 1.88965V-0.110352C84.0744 -0.110352 83.245 0.0654781 82.4598 0.416772L83.2765 2.24241ZM84.9385 1.88965H106.133V-0.110352H84.9385V1.88965ZM106.133 1.88965C106.718 1.88965 107.257 2.00706 107.76 2.23827L108.595 0.420913C107.822 0.065532 106.997 -0.110352 106.133 -0.110352V1.88965ZM107.79 2.25122C108.331 2.47917 108.791 2.78753 109.179 3.17537L110.593 1.76115C110.015 1.18285 109.336 0.732088 108.566 0.407954L107.79 2.25122ZM109.192 3.18811C109.571 3.55432 109.876 4.0001 110.103 4.53845L111.946 3.76233C111.621 2.98948 111.166 2.31385 110.58 1.74842L109.192 3.18811ZM110.107 4.5473C110.326 5.05509 110.438 5.6009 110.438 6.19482H112.438C112.438 5.33953 112.275 4.52239 111.942 3.75348L110.107 4.5473ZM110.438 6.19482V32.6948H112.438V6.19482H110.438ZM83.9385 6.19482V32.6948H85.9385V6.19482H83.9385ZM84.9385 33.6948H106.133V31.6948H84.9385V33.6948ZM107.133 32.6948V6.19482H105.133V32.6948H107.133ZM106.133 5.19482H84.9385V7.19482H106.133V5.19482ZM121.402 4.15039L122.32 4.54732L122.323 4.53845L121.402 4.15039ZM122.541 2.46826L123.235 3.18811L123.241 3.1818L123.248 3.17537L122.541 2.46826ZM124.223 1.32959L124.62 2.24752L124.631 2.24241L124.223 1.32959ZM148.471 1.32959L148.054 2.23827L148.068 2.24498L148.083 2.25122L148.471 1.32959ZM150.179 2.46826L149.472 3.17537L149.479 3.1818L149.485 3.18811L150.179 2.46826ZM151.318 4.15039L150.396 4.53847L150.4 4.5473L151.318 4.15039ZM151.732 10.9824V11.9824H152.732V10.9824H151.732ZM146.427 10.9824H145.427V11.9824H146.427V10.9824ZM146.427 6.19482H147.427V5.19482H146.427V6.19482ZM126.293 6.19482V5.19482H125.293V6.19482H126.293ZM126.293 32.6948H125.293V33.6948H126.293V32.6948ZM146.427 32.6948V33.6948H147.427V32.6948H146.427ZM146.427 23.689H147.427V22.689H146.427V23.689ZM136.36 23.689H135.36V24.689H136.36V23.689ZM136.36 18.3838V17.3838H135.36V18.3838H136.36ZM151.732 18.3838H152.732V17.3838H151.732V18.3838ZM151.318 34.7651L152.236 35.1621L152.24 35.1532L151.318 34.7651ZM148.471 37.5859L148.083 36.6643L148.074 36.6681L148.471 37.5859ZM124.223 37.5859L123.826 38.5038L123.835 38.5076L124.223 37.5859ZM122.541 36.4473L121.833 37.1544L122.541 36.4473ZM121.402 34.7651L120.48 35.1532L120.484 35.162L121.402 34.7651ZM121.988 6.19482C121.988 5.6009 122.1 5.05509 122.32 4.5473L120.484 3.75348C120.152 4.52239 119.988 5.33953 119.988 6.19482H121.988ZM122.323 4.53845C122.55 4.0001 122.855 3.55432 123.235 3.18811L121.846 1.74842C121.26 2.31385 120.806 2.98948 120.48 3.76233L122.323 4.53845ZM123.248 3.17537C123.64 2.78311 124.095 2.47435 124.62 2.24745L123.826 0.411733C123.074 0.736912 122.407 1.18727 121.833 1.76115L123.248 3.17537ZM124.631 2.24241C125.157 2.00711 125.708 1.88965 126.293 1.88965V-0.110352C125.429 -0.110352 124.6 0.0654781 123.814 0.416772L124.631 2.24241ZM126.293 1.88965H146.427V-0.110352H126.293V1.88965ZM146.427 1.88965C147.012 1.88965 147.55 2.00706 148.054 2.23827L148.889 0.420913C148.115 0.065532 147.291 -0.110352 146.427 -0.110352V1.88965ZM148.083 2.25122C148.625 2.47917 149.084 2.78753 149.472 3.17537L150.886 1.76115C150.308 1.18285 149.629 0.732088 148.859 0.407954L148.083 2.25122ZM149.485 3.18811C149.865 3.55432 150.17 4.0001 150.396 4.53845L152.24 3.76233C151.914 2.98948 151.46 2.31385 150.873 1.74842L149.485 3.18811ZM150.4 4.5473C150.62 5.05509 150.732 5.6009 150.732 6.19482H152.732C152.732 5.33953 152.568 4.52239 152.236 3.75348L150.4 4.5473ZM150.732 6.19482V10.9824H152.732V6.19482H150.732ZM151.732 9.98242H146.427V11.9824H151.732V9.98242ZM147.427 10.9824V6.19482H145.427V10.9824H147.427ZM146.427 5.19482H126.293V7.19482H146.427V5.19482ZM125.293 6.19482V32.6948H127.293V6.19482H125.293ZM126.293 33.6948H146.427V31.6948H126.293V33.6948ZM147.427 32.6948V23.689H145.427V32.6948H147.427ZM146.427 22.689H136.36V24.689H146.427V22.689ZM137.36 23.689V18.3838H135.36V23.689H137.36ZM136.36 19.3838H151.732V17.3838H136.36V19.3838ZM150.732 18.3838V32.6948H152.732V18.3838H150.732ZM150.732 32.6948C150.732 33.2887 150.62 33.8466 150.396 34.3771L152.24 35.1532C152.568 34.3724 152.732 33.5502 152.732 32.6948H150.732ZM150.4 34.3682C150.173 34.8929 149.864 35.3479 149.472 35.7402L150.886 37.1544C151.46 36.5805 151.911 35.914 152.236 35.162L150.4 34.3682ZM149.472 35.7402C149.084 36.128 148.625 36.4364 148.083 36.6643L148.859 38.5076C149.629 38.1834 150.308 37.7327 150.886 37.1544L149.472 35.7402ZM148.074 36.6681C147.566 36.8877 147.021 37 146.427 37V39C147.282 39 148.099 38.8363 148.868 38.5038L148.074 36.6681ZM146.427 37H126.293V39H146.427V37ZM126.293 37C125.699 37 125.141 36.8876 124.611 36.6643L123.835 38.5076C124.615 38.8363 125.438 39 126.293 39V37ZM124.62 36.6681C124.095 36.4412 123.64 36.1324 123.248 35.7402L121.833 37.1544C122.407 37.7283 123.074 38.1786 123.826 38.5038L124.62 36.6681ZM123.248 35.7402C122.855 35.3479 122.547 34.8929 122.32 34.3682L120.484 35.162C120.809 35.914 121.26 36.5805 121.833 37.1544L123.248 35.7402ZM122.323 34.3771C122.1 33.8466 121.988 33.2887 121.988 32.6948H119.988C119.988 33.5502 120.151 34.3724 120.48 35.1532L122.323 34.3771ZM121.988 32.6948V6.19482H119.988V32.6948H121.988ZM183.951 22.9902L183.789 22.0034L182.488 22.2169L183.045 23.4123L183.951 22.9902ZM190.938 38V39H192.507L191.845 37.578L190.938 38ZM185.064 38L184.157 38.4211L184.426 39H185.064V38ZM178.18 23.1714L179.087 22.7503L178.818 22.1714H178.18V23.1714ZM166.561 23.1714V22.1714H165.561V23.1714H166.561ZM166.561 38V39H167.561V38H166.561ZM161.255 38H160.255V39H161.255V38ZM161.255 0.889648V-0.110352H160.255V0.889648H161.255ZM166.561 17.8662H165.561V18.8662H166.561V17.8662ZM166.561 6.19482V5.19482H165.561V6.19482H166.561ZM189.576 14.1396C189.576 16.5966 189.051 18.3903 188.119 19.6349C187.202 20.8605 185.801 21.6734 183.789 22.0034L184.113 23.977C186.518 23.5824 188.43 22.558 189.72 20.8334C190.997 19.1277 191.576 16.8584 191.576 14.1396H189.576ZM183.045 23.4123L190.032 38.422L191.845 37.578L184.858 22.5682L183.045 23.4123ZM190.938 37H185.064V39H190.938V37ZM185.971 37.5789L179.087 22.7503L177.273 23.5925L184.157 38.4211L185.971 37.5789ZM178.18 22.1714H166.561V24.1714H178.18V22.1714ZM165.561 23.1714V38H167.561V23.1714H165.561ZM166.561 37H161.255V39H166.561V37ZM162.255 38V0.889648H160.255V38H162.255ZM161.255 1.88965H181.57V-0.110352H161.255V1.88965ZM181.57 1.88965C184.417 1.88965 186.369 2.60269 187.617 3.85367C188.865 5.10519 189.576 7.06423 189.576 9.92139H191.576C191.576 6.75739 190.787 4.20056 189.033 2.44149C187.278 0.681896 184.727 -0.110352 181.57 -0.110352V1.88965ZM189.576 9.92139V14.1396H191.576V9.92139H189.576ZM166.561 18.8662H181.286V16.8662H166.561V18.8662ZM181.286 18.8662C182.81 18.8662 184.151 18.5372 185.046 17.6417L183.632 16.2275C183.286 16.5741 182.591 16.8662 181.286 16.8662V18.8662ZM185.046 17.6417C185.942 16.7461 186.271 15.4054 186.271 13.8809H184.271C184.271 15.1858 183.979 15.8808 183.632 16.2275L185.046 17.6417ZM186.271 13.8809V10.1802H184.271V13.8809H186.271ZM186.271 10.1802C186.271 8.65566 185.942 7.31492 185.046 6.41936L183.632 7.83357C183.979 8.1802 184.271 8.87527 184.271 10.1802H186.271ZM185.046 6.41936C184.151 5.5238 182.81 5.19482 181.286 5.19482V7.19482C182.591 7.19482 183.286 7.48694 183.632 7.83357L185.046 6.41936ZM181.286 5.19482H166.561V7.19482H181.286V5.19482ZM165.561 6.19482V17.8662H167.561V6.19482H165.561ZM199.453 0.889648V-0.110352H198.453V0.889648H199.453ZM226.496 0.889648H227.496V-0.110352H226.496V0.889648ZM226.496 6.19482V7.19482H227.496V6.19482H226.496ZM204.758 6.19482V5.19482H203.758V6.19482H204.758ZM204.758 16.8052H203.758V17.8052H204.758V16.8052ZM223.313 16.8052H224.313V15.8052H223.313V16.8052ZM223.313 22.1104V23.1104H224.313V22.1104H223.313ZM204.758 22.1104V21.1104H203.758V22.1104H204.758ZM204.758 32.6948H203.758V33.6948H204.758V32.6948ZM226.496 32.6948H227.496V31.6948H226.496V32.6948ZM226.496 38V39H227.496V38H226.496ZM199.453 38H198.453V39H199.453V38ZM199.453 1.88965H226.496V-0.110352H199.453V1.88965ZM225.496 0.889648V6.19482H227.496V0.889648H225.496ZM226.496 5.19482H204.758V7.19482H226.496V5.19482ZM203.758 6.19482V16.8052H205.758V6.19482H203.758ZM204.758 17.8052H223.313V15.8052H204.758V17.8052ZM222.313 16.8052V22.1104H224.313V16.8052H222.313ZM223.313 21.1104H204.758V23.1104H223.313V21.1104ZM203.758 22.1104V32.6948H205.758V22.1104H203.758ZM204.758 33.6948H226.496V31.6948H204.758V33.6948ZM225.496 32.6948V38H227.496V32.6948H225.496ZM226.496 37H199.453V39H226.496V37ZM200.453 38V0.889648H198.453V38H200.453ZM237.676 21.6963L237.258 22.605L237.273 22.6117L237.288 22.6179L237.676 21.6963ZM235.994 20.5576L235.287 21.2647L235.293 21.2712L235.3 21.2775L235.994 20.5576ZM234.855 18.8755L233.933 19.2636L233.937 19.2724L234.855 18.8755ZM234.855 4.15039L235.773 4.54732L235.777 4.53845L234.855 4.15039ZM235.994 2.46826L236.688 3.18811L236.694 3.1818L236.701 3.17537L235.994 2.46826ZM237.676 1.32959L238.073 2.24752L238.084 2.24241L237.676 1.32959ZM259.802 1.32959L259.385 2.23827L259.399 2.24498L259.414 2.25122L259.802 1.32959ZM261.51 2.46826L260.803 3.17537L260.81 3.1818L260.816 3.18811L261.51 2.46826ZM262.649 4.15039L261.727 4.53847L261.731 4.5473L262.649 4.15039ZM263.063 10.9824V11.9824H264.063V10.9824H263.063ZM257.758 10.9824H256.758V11.9824H257.758V10.9824ZM257.758 6.19482H258.758V5.19482H257.758V6.19482ZM239.746 6.19482V5.19482H238.746V6.19482H239.746ZM239.746 16.8052H238.746V17.8052H239.746V16.8052ZM259.802 17.2192L259.405 18.1371L259.414 18.1409L259.802 17.2192ZM261.51 18.3579L260.803 19.065L261.51 18.3579ZM262.649 20.0659L261.727 20.454L261.731 20.4628L262.649 20.0659ZM262.649 34.7651L263.567 35.1621L263.571 35.1532L262.649 34.7651ZM261.51 36.4473L260.803 35.7402L261.51 36.4473ZM259.802 37.5859L259.414 36.6643L259.405 36.6681L259.802 37.5859ZM237.158 37.5859L236.761 38.5038L236.77 38.5076L237.158 37.5859ZM235.476 36.4473L234.769 37.1544L235.476 36.4473ZM234.337 34.7651L233.416 35.1532L233.42 35.162L234.337 34.7651ZM233.923 27.9331V26.9331H232.923V27.9331H233.923ZM239.229 27.9331H240.229V26.9331H239.229V27.9331ZM239.229 32.6948H238.229V33.6948H239.229V32.6948ZM257.758 32.6948V33.6948H258.758V32.6948H257.758ZM257.758 22.1104H258.758V21.1104H257.758V22.1104ZM239.746 21.1104C239.152 21.1104 238.594 20.998 238.064 20.7747L237.288 22.6179C238.068 22.9467 238.891 23.1104 239.746 23.1104V21.1104ZM238.093 20.7876C237.552 20.539 237.086 20.2219 236.688 19.8378L235.3 21.2775C235.867 21.8249 236.523 22.2669 237.258 22.605L238.093 20.7876ZM236.701 19.8505C236.309 19.4582 236 19.0033 235.773 18.4786L233.937 19.2724C234.262 20.0244 234.713 20.6908 235.287 21.2647L236.701 19.8505ZM235.777 18.4874C235.553 17.957 235.441 17.3991 235.441 16.8052H233.441C233.441 17.6605 233.605 18.4828 233.933 19.2635L235.777 18.4874ZM235.441 16.8052V6.19482H233.441V16.8052H235.441ZM235.441 6.19482C235.441 5.6009 235.553 5.05509 235.773 4.5473L233.937 3.75348C233.605 4.52239 233.441 5.33953 233.441 6.19482H235.441ZM235.777 4.53845C236.003 4.0001 236.308 3.55432 236.688 3.18811L235.3 1.74842C234.713 2.31385 234.259 2.98948 233.933 3.76233L235.777 4.53845ZM236.701 3.17537C237.093 2.78311 237.548 2.47435 238.073 2.24745L237.279 0.411733C236.527 0.736912 235.86 1.18727 235.287 1.76115L236.701 3.17537ZM238.084 2.24241C238.61 2.00711 239.161 1.88965 239.746 1.88965V-0.110352C238.882 -0.110352 238.053 0.0654781 237.267 0.416772L238.084 2.24241ZM239.746 1.88965H257.758V-0.110352H239.746V1.88965ZM257.758 1.88965C258.343 1.88965 258.882 2.00706 259.385 2.23827L260.22 0.420913C259.446 0.065532 258.622 -0.110352 257.758 -0.110352V1.88965ZM259.414 2.25122C259.956 2.47917 260.415 2.78753 260.803 3.17537L262.217 1.76115C261.639 1.18285 260.96 0.732088 260.19 0.407954L259.414 2.25122ZM260.816 3.18811C261.196 3.55432 261.501 4.0001 261.727 4.53845L263.571 3.76233C263.245 2.98948 262.791 2.31385 262.204 1.74842L260.816 3.18811ZM261.731 4.5473C261.951 5.05509 262.063 5.6009 262.063 6.19482H264.063C264.063 5.33953 263.899 4.52239 263.567 3.75348L261.731 4.5473ZM262.063 6.19482V10.9824H264.063V6.19482H262.063ZM263.063 9.98242H257.758V11.9824H263.063V9.98242ZM258.758 10.9824V6.19482H256.758V10.9824H258.758ZM257.758 5.19482H239.746V7.19482H257.758V5.19482ZM238.746 6.19482V16.8052H240.746V6.19482H238.746ZM239.746 17.8052H257.758V15.8052H239.746V17.8052ZM257.758 17.8052C258.352 17.8052 258.898 17.9175 259.405 18.1371L260.199 16.3014C259.43 15.9689 258.613 15.8052 257.758 15.8052V17.8052ZM259.414 18.1409C259.956 18.3688 260.415 18.6772 260.803 19.065L262.217 17.6508C261.639 17.0725 260.96 16.6217 260.19 16.2976L259.414 18.1409ZM260.803 19.065C261.191 19.4529 261.499 19.9126 261.727 20.454L263.571 19.6779C263.246 18.908 262.796 18.2291 262.217 17.6508L260.803 19.065ZM261.731 20.4628C261.951 20.9706 262.063 21.5164 262.063 22.1104H264.063C264.063 21.2551 263.899 20.4379 263.567 19.669L261.731 20.4628ZM262.063 22.1104V32.6948H264.063V22.1104H262.063ZM262.063 32.6948C262.063 33.2887 261.951 33.8466 261.727 34.3771L263.571 35.1532C263.899 34.3724 264.063 33.5502 264.063 32.6948H262.063ZM261.731 34.3682C261.504 34.8929 261.195 35.3479 260.803 35.7402L262.217 37.1544C262.791 36.5805 263.242 35.914 263.567 35.162L261.731 34.3682ZM260.803 35.7402C260.415 36.128 259.956 36.4364 259.414 36.6643L260.19 38.5076C260.96 38.1834 261.639 37.7327 262.217 37.1544L260.803 35.7402ZM259.405 36.6681C258.898 36.8877 258.352 37 257.758 37V39C258.613 39 259.43 38.8363 260.199 38.5038L259.405 36.6681ZM257.758 37H239.229V39H257.758V37ZM239.229 37C238.635 37 238.077 36.8876 237.546 36.6643L236.77 38.5076C237.551 38.8363 238.373 39 239.229 39V37ZM237.555 36.6681C237.03 36.4412 236.575 36.1324 236.183 35.7402L234.769 37.1544C235.343 37.7283 236.009 38.1786 236.761 38.5038L237.555 36.6681ZM236.183 35.7402C235.791 35.3479 235.482 34.8929 235.255 34.3682L233.42 35.162C233.745 35.914 234.195 36.5805 234.769 37.1544L236.183 35.7402ZM235.259 34.3771C235.036 33.8466 234.923 33.2887 234.923 32.6948H232.923C232.923 33.5502 233.087 34.3724 233.416 35.1532L235.259 34.3771ZM234.923 32.6948V27.9331H232.923V32.6948H234.923ZM233.923 28.9331H239.229V26.9331H233.923V28.9331ZM238.229 27.9331V32.6948H240.229V27.9331H238.229ZM239.229 33.6948H257.758V31.6948H239.229V33.6948ZM258.758 32.6948V22.1104H256.758V32.6948H258.758ZM257.758 21.1104H239.746V23.1104H257.758V21.1104ZM275.873 21.6963L275.456 22.605L275.47 22.6117L275.485 22.6179L275.873 21.6963ZM274.191 20.5576L273.484 21.2647L273.49 21.2712L273.497 21.2775L274.191 20.5576ZM273.052 18.8755L272.131 19.2636L272.134 19.2724L273.052 18.8755ZM273.052 4.15039L273.97 4.54732L273.974 4.53845L273.052 4.15039ZM274.191 2.46826L274.885 3.18811L274.892 3.1818L274.898 3.17537L274.191 2.46826ZM275.873 1.32959L276.27 2.24752L276.281 2.24241L275.873 1.32959ZM298 1.32959L297.582 2.23827L297.597 2.24498L297.611 2.25122L298 1.32959ZM299.708 2.46826L299 3.17537L299.007 3.1818L299.013 3.18811L299.708 2.46826ZM300.846 4.15039L299.924 4.53847L299.928 4.5473L300.846 4.15039ZM301.26 10.9824V11.9824H302.26V10.9824H301.26ZM295.955 10.9824H294.955V11.9824H295.955V10.9824ZM295.955 6.19482H296.955V5.19482H295.955V6.19482ZM277.943 6.19482V5.19482H276.943V6.19482H277.943ZM277.943 16.8052H276.943V17.8052H277.943V16.8052ZM298 17.2192L297.603 18.1371L297.611 18.1409L298 17.2192ZM299.708 18.3579L299 19.065L299.708 18.3579ZM300.846 20.0659L299.924 20.454L299.928 20.4628L300.846 20.0659ZM300.846 34.7651L301.764 35.1621L301.768 35.1532L300.846 34.7651ZM299.708 36.4473L299 35.7402L299.708 36.4473ZM298 37.5859L297.611 36.6643L297.603 36.6681L298 37.5859ZM275.355 37.5859L274.959 38.5038L274.967 38.5076L275.355 37.5859ZM273.673 36.4473L272.966 37.1544L273.673 36.4473ZM272.535 34.7651L271.613 35.1532L271.617 35.162L272.535 34.7651ZM272.121 27.9331V26.9331H271.121V27.9331H272.121ZM277.426 27.9331H278.426V26.9331H277.426V27.9331ZM277.426 32.6948H276.426V33.6948H277.426V32.6948ZM295.955 32.6948V33.6948H296.955V32.6948H295.955ZM295.955 22.1104H296.955V21.1104H295.955V22.1104ZM277.943 21.1104C277.349 21.1104 276.792 20.998 276.261 20.7747L275.485 22.6179C276.266 22.9467 277.088 23.1104 277.943 23.1104V21.1104ZM276.291 20.7876C275.75 20.539 275.283 20.2219 274.885 19.8378L273.497 21.2775C274.065 21.8249 274.72 22.2669 275.456 22.605L276.291 20.7876ZM274.898 19.8505C274.506 19.4582 274.197 19.0033 273.97 18.4786L272.134 19.2724C272.46 20.0244 272.91 20.6908 273.484 21.2647L274.898 19.8505ZM273.974 18.4874C273.751 17.957 273.638 17.3991 273.638 16.8052H271.638C271.638 17.6605 271.802 18.4828 272.131 19.2635L273.974 18.4874ZM273.638 16.8052V6.19482H271.638V16.8052H273.638ZM273.638 6.19482C273.638 5.6009 273.751 5.05509 273.97 4.5473L272.134 3.75348C271.802 4.52239 271.638 5.33953 271.638 6.19482H273.638ZM273.974 4.53845C274.201 4.0001 274.505 3.55432 274.885 3.18811L273.497 1.74842C272.91 2.31385 272.456 2.98948 272.131 3.76233L273.974 4.53845ZM274.898 3.17537C275.29 2.78311 275.745 2.47435 276.27 2.24745L275.476 0.411733C274.724 0.736912 274.058 1.18727 273.484 1.76115L274.898 3.17537ZM276.281 2.24241C276.807 2.00711 277.358 1.88965 277.943 1.88965V-0.110352C277.079 -0.110352 276.25 0.0654781 275.465 0.416772L276.281 2.24241ZM277.943 1.88965H295.955V-0.110352H277.943V1.88965ZM295.955 1.88965C296.54 1.88965 297.079 2.00706 297.582 2.23827L298.417 0.420913C297.644 0.065532 296.819 -0.110352 295.955 -0.110352V1.88965ZM297.611 2.25122C298.153 2.47917 298.613 2.78753 299 3.17537L300.415 1.76115C299.836 1.18285 299.157 0.732088 298.388 0.407954L297.611 2.25122ZM299.013 3.18811C299.393 3.55432 299.698 4.0001 299.925 4.53845L301.768 3.76233C301.442 2.98948 300.988 2.31385 300.402 1.74842L299.013 3.18811ZM299.928 4.5473C300.148 5.05509 300.26 5.6009 300.26 6.19482H302.26C302.26 5.33953 302.097 4.52239 301.764 3.75348L299.928 4.5473ZM300.26 6.19482V10.9824H302.26V6.19482H300.26ZM301.26 9.98242H295.955V11.9824H301.26V9.98242ZM296.955 10.9824V6.19482H294.955V10.9824H296.955ZM295.955 5.19482H277.943V7.19482H295.955V5.19482ZM276.943 6.19482V16.8052H278.943V6.19482H276.943ZM277.943 17.8052H295.955V15.8052H277.943V17.8052ZM295.955 17.8052C296.549 17.8052 297.095 17.9175 297.603 18.1371L298.396 16.3014C297.628 15.9689 296.81 15.8052 295.955 15.8052V17.8052ZM297.611 18.1409C298.153 18.3688 298.613 18.6772 299 19.065L300.415 17.6508C299.836 17.0725 299.157 16.6217 298.388 16.2976L297.611 18.1409ZM299 19.065C299.388 19.4529 299.697 19.9126 299.925 20.454L301.768 19.6779C301.444 18.908 300.993 18.2291 300.415 17.6508L299 19.065ZM299.928 20.4628C300.148 20.9706 300.26 21.5164 300.26 22.1104H302.26C302.26 21.2551 302.097 20.4379 301.764 19.669L299.928 20.4628ZM300.26 22.1104V32.6948H302.26V22.1104H300.26ZM300.26 32.6948C300.26 33.2887 300.148 33.8466 299.925 34.3771L301.768 35.1532C302.097 34.3724 302.26 33.5502 302.26 32.6948H300.26ZM299.928 34.3682C299.701 34.8929 299.393 35.3479 299 35.7402L300.415 37.1544C300.989 36.5805 301.439 35.914 301.764 35.162L299.928 34.3682ZM299 35.7402C298.613 36.128 298.153 36.4364 297.611 36.6643L298.388 38.5076C299.157 38.1834 299.836 37.7327 300.415 37.1544L299 35.7402ZM297.603 36.6681C297.095 36.8877 296.549 37 295.955 37V39C296.81 39 297.628 38.8363 298.396 38.5038L297.603 36.6681ZM295.955 37H277.426V39H295.955V37ZM277.426 37C276.832 37 276.274 36.8876 275.744 36.6643L274.967 38.5076C275.748 38.8363 276.57 39 277.426 39V37ZM275.752 36.6681C275.228 36.4412 274.773 36.1324 274.38 35.7402L272.966 37.1544C273.54 37.7283 274.207 38.1786 274.959 38.5038L275.752 36.6681ZM274.38 35.7402C273.988 35.3479 273.679 34.8929 273.453 34.3682L271.617 35.162C271.942 35.914 272.392 36.5805 272.966 37.1544L274.38 35.7402ZM273.456 34.3771C273.233 33.8466 273.121 33.2887 273.121 32.6948H271.121C271.121 33.5502 271.284 34.3724 271.613 35.1532L273.456 34.3771ZM273.121 32.6948V27.9331H271.121V32.6948H273.121ZM272.121 28.9331H277.426V26.9331H272.121V28.9331ZM276.426 27.9331V32.6948H278.426V27.9331H276.426ZM277.426 33.6948H295.955V31.6948H277.426V33.6948ZM296.955 32.6948V22.1104H294.955V32.6948H296.955ZM295.955 21.1104H277.943V23.1104H295.955V21.1104Z" fill="black" mask="url(#path-1-inside-1_23_223)"/>
</g>
<defs>
<filter id="filter0_d_23_223" x="0.687988" y="0.889648" width="304.572" height="49.1104" filterUnits="userSpaceOnUse" color-interpolation-filters="sRGB">
<feFlood flood-opacity="0" result="BackgroundImageFix"/>
<feColorMatrix in="SourceAlpha" type="matrix" values="0 0 0 0 0 0 0 0 0 0 0 0 0 0 0 0 0 0 127 0" result="hardAlpha"/>
<feOffset dy="8"/>
<feGaussianBlur stdDeviation="2"/>
<feComposite in2="hardAlpha" operator="out"/>
<feColorMatrix type="matrix" values="0 0 0 0 0.0627451 0 0 0 0 0.239216 0 0 0 0 0.243137 0 0 0 1 0"/>
<feBlend mode="normal" in2="BackgroundImageFix" result="effect1_dropShadow_23_223"/>
<feBlend mode="normal" in="SourceGraphic" in2="effect1_dropShadow_23_223" result="shape"/>
</filter>
</defs>
</svg>
