<svg width="281" height="47" viewBox="0 0 281 47" fill="none" xmlns="http://www.w3.org/2000/svg">
<g filter="url(#filter0_d_228_125)">
<mask id="path-1-inside-1_228_125" fill="white">
<path d="M10.3857 20.0098C9.70215 20.0098 9.05111 19.8796 8.43262 19.6191C7.8304 19.3424 7.30143 18.9844 6.8457 18.5449C6.38997 18.0892 6.0319 17.5602 5.77148 16.958C5.51107 16.3395 5.38086 15.6885 5.38086 15.0049V4.99512C5.38086 4.31152 5.51107 3.66862 5.77148 3.06641C6.0319 2.44792 6.38997 1.91895 6.8457 1.47949C7.30143 1.02376 7.8304 0.66569 8.43262 0.405273C9.05111 0.128581 9.70215 -0.00976562 10.3857 -0.00976562H27.3779C28.0615 -0.00976562 28.7044 0.128581 29.3066 0.405273C29.9251 0.66569 30.4622 1.02376 30.918 1.47949C31.3737 1.91895 31.7318 2.44792 31.9922 3.06641C32.2526 3.66862 32.3828 4.31152 32.3828 4.99512V9.51172H27.3779V4.99512H10.3857V15.0049H27.3779C28.0615 15.0049 28.7044 15.1351 29.3066 15.3955C29.9251 15.6559 30.4622 16.014 30.918 16.4697C31.3737 16.9255 31.7318 17.4626 31.9922 18.0811C32.2526 18.6833 32.3828 19.3262 32.3828 20.0098V29.9951C32.3828 30.6787 32.2526 31.3298 31.9922 31.9482C31.7318 32.5505 31.3737 33.0794 30.918 33.5352C30.4622 33.9909 29.9251 34.349 29.3066 34.6094C28.7044 34.8698 28.0615 35 27.3779 35H9.89746C9.21387 35 8.56283 34.8698 7.94434 34.6094C7.34212 34.349 6.81315 33.9909 6.35742 33.5352C5.90169 33.0794 5.54362 32.5505 5.2832 31.9482C5.02279 31.3298 4.89258 30.6787 4.89258 29.9951V25.5029H9.89746V29.9951H27.3779V20.0098H10.3857ZM56.9189 -0.00976562L70.4199 35H65.415L62.3145 26.9434H46.5186L43.418 35H38.4131L51.9141 -0.00976562H56.9189ZM48.4229 21.9385H60.3857L54.4287 6.50879L48.4229 21.9385ZM99.2285 16.7383C99.9609 16.9661 100.628 17.2917 101.23 17.7148C101.833 18.138 102.345 18.6833 102.769 19.3506C103.192 20.0016 103.517 20.7747 103.745 21.6699C103.973 22.5651 104.087 23.5905 104.087 24.7461V26.5039C104.087 32.168 101.255 35 95.5908 35H76.4258V-0.00976562H94.5898C100.254 -0.00976562 103.086 2.8304 103.086 8.51074V9.14551C103.086 11.1149 102.769 12.7262 102.134 13.9795C101.515 15.2165 100.547 16.1361 99.2285 16.7383ZM81.333 19.7412V30.0928H95.4443C96.7627 30.0928 97.7148 29.7835 98.3008 29.165C98.8867 28.5465 99.1797 27.5781 99.1797 26.2598V23.5498C99.1797 22.2152 98.8867 21.2467 98.3008 20.6445C97.7148 20.0423 96.7627 19.7412 95.4443 19.7412H81.333ZM81.333 4.89746V14.8584H94.7852C95.9896 14.8096 96.8522 14.484 97.373 13.8818C97.9102 13.2633 98.1787 12.3193 98.1787 11.0498V8.75488C98.1787 7.42025 97.8857 6.44368 97.2998 5.8252C96.7139 5.20671 95.7617 4.89746 94.4434 4.89746H81.333ZM141.587 29.9951C141.587 30.6787 141.457 31.3298 141.196 31.9482C140.936 32.5505 140.578 33.0794 140.122 33.5352C139.666 33.9909 139.129 34.349 138.511 34.6094C137.909 34.8698 137.266 35 136.582 35H116.587C115.903 35 115.252 34.8698 114.634 34.6094C114.032 34.349 113.503 33.9909 113.047 33.5352C112.591 33.0794 112.233 32.5505 111.973 31.9482C111.712 31.3298 111.582 30.6787 111.582 29.9951V4.99512C111.582 4.31152 111.712 3.66862 111.973 3.06641C112.233 2.44792 112.591 1.91895 113.047 1.47949C113.503 1.02376 114.032 0.66569 114.634 0.405273C115.252 0.128581 115.903 -0.00976562 116.587 -0.00976562H136.582C137.266 -0.00976562 137.909 0.128581 138.511 0.405273C139.129 0.66569 139.666 1.02376 140.122 1.47949C140.578 1.91895 140.936 2.44792 141.196 3.06641C141.457 3.66862 141.587 4.31152 141.587 4.99512V29.9951ZM116.587 4.99512V29.9951H136.582V4.99512H116.587ZM147.593 -0.00976562H175.596V4.99512H164.097V35H159.092V4.99512H147.593V-0.00976562ZM193.101 -0.00976562L206.602 35H201.597L198.496 26.9434H182.7L179.6 35H174.595L188.096 -0.00976562H193.101ZM184.604 21.9385H196.567L190.61 6.50879L184.604 21.9385ZM212.607 4.99512C212.607 4.31152 212.738 3.66862 212.998 3.06641C213.258 2.44792 213.617 1.91895 214.072 1.47949C214.528 1.02376 215.057 0.66569 215.659 0.405273C216.278 0.128581 216.929 -0.00976562 217.612 -0.00976562H236.606C237.29 -0.00976562 237.933 0.128581 238.535 0.405273C239.154 0.66569 239.691 1.02376 240.146 1.47949C240.602 1.91895 240.96 2.44792 241.221 3.06641C241.481 3.66862 241.611 4.31152 241.611 4.99512V9.51172H236.606V4.99512H217.612V29.9951H236.606V21.499H227.109V16.4941H241.611V29.9951C241.611 30.6787 241.481 31.3298 241.221 31.9482C240.96 32.5505 240.602 33.0794 240.146 33.5352C239.691 33.9909 239.154 34.349 238.535 34.6094C237.933 34.8698 237.29 35 236.606 35H217.612C216.929 35 216.278 34.8698 215.659 34.6094C215.057 34.349 214.528 33.9909 214.072 33.5352C213.617 33.0794 213.258 32.5505 212.998 31.9482C212.738 31.3298 212.607 30.6787 212.607 29.9951V4.99512ZM250.596 -0.00976562H276.108V4.99512H255.601V15.0049H273.105V20.0098H255.601V29.9951H276.108V35H250.596V-0.00976562Z"/>
</mask>
<path d="M10.3857 20.0098C9.70215 20.0098 9.05111 19.8796 8.43262 19.6191C7.8304 19.3424 7.30143 18.9844 6.8457 18.5449C6.38997 18.0892 6.0319 17.5602 5.77148 16.958C5.51107 16.3395 5.38086 15.6885 5.38086 15.0049V4.99512C5.38086 4.31152 5.51107 3.66862 5.77148 3.06641C6.0319 2.44792 6.38997 1.91895 6.8457 1.47949C7.30143 1.02376 7.8304 0.66569 8.43262 0.405273C9.05111 0.128581 9.70215 -0.00976562 10.3857 -0.00976562H27.3779C28.0615 -0.00976562 28.7044 0.128581 29.3066 0.405273C29.9251 0.66569 30.4622 1.02376 30.918 1.47949C31.3737 1.91895 31.7318 2.44792 31.9922 3.06641C32.2526 3.66862 32.3828 4.31152 32.3828 4.99512V9.51172H27.3779V4.99512H10.3857V15.0049H27.3779C28.0615 15.0049 28.7044 15.1351 29.3066 15.3955C29.9251 15.6559 30.4622 16.014 30.918 16.4697C31.3737 16.9255 31.7318 17.4626 31.9922 18.0811C32.2526 18.6833 32.3828 19.3262 32.3828 20.0098V29.9951C32.3828 30.6787 32.2526 31.3298 31.9922 31.9482C31.7318 32.5505 31.3737 33.0794 30.918 33.5352C30.4622 33.9909 29.9251 34.349 29.3066 34.6094C28.7044 34.8698 28.0615 35 27.3779 35H9.89746C9.21387 35 8.56283 34.8698 7.94434 34.6094C7.34212 34.349 6.81315 33.9909 6.35742 33.5352C5.90169 33.0794 5.54362 32.5505 5.2832 31.9482C5.02279 31.3298 4.89258 30.6787 4.89258 29.9951V25.5029H9.89746V29.9951H27.3779V20.0098H10.3857ZM56.9189 -0.00976562L70.4199 35H65.415L62.3145 26.9434H46.5186L43.418 35H38.4131L51.9141 -0.00976562H56.9189ZM48.4229 21.9385H60.3857L54.4287 6.50879L48.4229 21.9385ZM99.2285 16.7383C99.9609 16.9661 100.628 17.2917 101.23 17.7148C101.833 18.138 102.345 18.6833 102.769 19.3506C103.192 20.0016 103.517 20.7747 103.745 21.6699C103.973 22.5651 104.087 23.5905 104.087 24.7461V26.5039C104.087 32.168 101.255 35 95.5908 35H76.4258V-0.00976562H94.5898C100.254 -0.00976562 103.086 2.8304 103.086 8.51074V9.14551C103.086 11.1149 102.769 12.7262 102.134 13.9795C101.515 15.2165 100.547 16.1361 99.2285 16.7383ZM81.333 19.7412V30.0928H95.4443C96.7627 30.0928 97.7148 29.7835 98.3008 29.165C98.8867 28.5465 99.1797 27.5781 99.1797 26.2598V23.5498C99.1797 22.2152 98.8867 21.2467 98.3008 20.6445C97.7148 20.0423 96.7627 19.7412 95.4443 19.7412H81.333ZM81.333 4.89746V14.8584H94.7852C95.9896 14.8096 96.8522 14.484 97.373 13.8818C97.9102 13.2633 98.1787 12.3193 98.1787 11.0498V8.75488C98.1787 7.42025 97.8857 6.44368 97.2998 5.8252C96.7139 5.20671 95.7617 4.89746 94.4434 4.89746H81.333ZM141.587 29.9951C141.587 30.6787 141.457 31.3298 141.196 31.9482C140.936 32.5505 140.578 33.0794 140.122 33.5352C139.666 33.9909 139.129 34.349 138.511 34.6094C137.909 34.8698 137.266 35 136.582 35H116.587C115.903 35 115.252 34.8698 114.634 34.6094C114.032 34.349 113.503 33.9909 113.047 33.5352C112.591 33.0794 112.233 32.5505 111.973 31.9482C111.712 31.3298 111.582 30.6787 111.582 29.9951V4.99512C111.582 4.31152 111.712 3.66862 111.973 3.06641C112.233 2.44792 112.591 1.91895 113.047 1.47949C113.503 1.02376 114.032 0.66569 114.634 0.405273C115.252 0.128581 115.903 -0.00976562 116.587 -0.00976562H136.582C137.266 -0.00976562 137.909 0.128581 138.511 0.405273C139.129 0.66569 139.666 1.02376 140.122 1.47949C140.578 1.91895 140.936 2.44792 141.196 3.06641C141.457 3.66862 141.587 4.31152 141.587 4.99512V29.9951ZM116.587 4.99512V29.9951H136.582V4.99512H116.587ZM147.593 -0.00976562H175.596V4.99512H164.097V35H159.092V4.99512H147.593V-0.00976562ZM193.101 -0.00976562L206.602 35H201.597L198.496 26.9434H182.7L179.6 35H174.595L188.096 -0.00976562H193.101ZM184.604 21.9385H196.567L190.61 6.50879L184.604 21.9385ZM212.607 4.99512C212.607 4.31152 212.738 3.66862 212.998 3.06641C213.258 2.44792 213.617 1.91895 214.072 1.47949C214.528 1.02376 215.057 0.66569 215.659 0.405273C216.278 0.128581 216.929 -0.00976562 217.612 -0.00976562H236.606C237.29 -0.00976562 237.933 0.128581 238.535 0.405273C239.154 0.66569 239.691 1.02376 240.146 1.47949C240.602 1.91895 240.96 2.44792 241.221 3.06641C241.481 3.66862 241.611 4.31152 241.611 4.99512V9.51172H236.606V4.99512H217.612V29.9951H236.606V21.499H227.109V16.4941H241.611V29.9951C241.611 30.6787 241.481 31.3298 241.221 31.9482C240.96 32.5505 240.602 33.0794 240.146 33.5352C239.691 33.9909 239.154 34.349 238.535 34.6094C237.933 34.8698 237.29 35 236.606 35H217.612C216.929 35 216.278 34.8698 215.659 34.6094C215.057 34.349 214.528 33.9909 214.072 33.5352C213.617 33.0794 213.258 32.5505 212.998 31.9482C212.738 31.3298 212.607 30.6787 212.607 29.9951V4.99512ZM250.596 -0.00976562H276.108V4.99512H255.601V15.0049H273.105V20.0098H255.601V29.9951H276.108V35H250.596V-0.00976562Z" fill="#43FFFF"/>
<path d="M8.43262 19.6191L8.01511 20.5278L8.02973 20.5345L8.04456 20.5408L8.43262 19.6191ZM6.8457 18.5449L6.1386 19.252L6.14503 19.2585L6.15157 19.2648L6.8457 18.5449ZM5.77148 16.958L4.84981 17.3461L4.85363 17.3549L5.77148 16.958ZM5.77148 3.06641L6.68938 3.46334L6.69312 3.45446L5.77148 3.06641ZM6.8457 1.47949L7.53984 2.19934L7.54638 2.19303L7.55281 2.1866L6.8457 1.47949ZM8.43262 0.405273L8.82956 1.3232L8.84098 1.31809L8.43262 0.405273ZM29.3066 0.405273L28.8891 1.31395L28.9038 1.32067L28.9186 1.32691L29.3066 0.405273ZM30.918 1.47949L30.2109 2.1866L30.2173 2.19303L30.2238 2.19934L30.918 1.47949ZM31.9922 3.06641L31.0705 3.45448L31.0743 3.46332L31.9922 3.06641ZM32.3828 9.51172V10.5117H33.3828V9.51172H32.3828ZM27.3779 9.51172H26.3779V10.5117H27.3779V9.51172ZM27.3779 4.99512H28.3779V3.99512H27.3779V4.99512ZM10.3857 4.99512V3.99512H9.38574V4.99512H10.3857ZM10.3857 15.0049H9.38574V16.0049H10.3857V15.0049ZM29.3066 15.3955L28.9097 16.3134L28.9186 16.3171L29.3066 15.3955ZM31.9922 18.0811L31.0705 18.4691L31.0743 18.478L31.9922 18.0811ZM31.9922 31.9482L32.9101 32.3452L32.9138 32.3363L31.9922 31.9482ZM29.3066 34.6094L28.9186 33.6877L28.9097 33.6915L29.3066 34.6094ZM7.94434 34.6094L7.54741 35.5273L7.55628 35.531L7.94434 34.6094ZM6.35742 33.5352L5.65031 34.2423L6.35742 33.5352ZM5.2832 31.9482L4.36153 32.3363L4.36535 32.3452L5.2832 31.9482ZM4.89258 25.5029V24.5029H3.89258V25.5029H4.89258ZM9.89746 25.5029H10.8975V24.5029H9.89746V25.5029ZM9.89746 29.9951H8.89746V30.9951H9.89746V29.9951ZM27.3779 29.9951V30.9951H28.3779V29.9951H27.3779ZM27.3779 20.0098H28.3779V19.0098H27.3779V20.0098ZM10.3857 19.0098C9.83288 19.0098 9.314 18.9052 8.82067 18.6975L8.04456 20.5408C8.78822 20.8539 9.57142 21.0098 10.3857 21.0098V19.0098ZM8.85012 18.7105C8.34525 18.4785 7.91089 18.1829 7.53984 17.8251L6.15157 19.2648C6.69198 19.7859 7.31556 20.2064 8.01511 20.5278L8.85012 18.7105ZM7.55281 17.8378C7.18789 17.4729 6.90062 17.0497 6.68934 16.5611L4.85363 17.3549C5.16319 18.0708 5.59206 18.7055 6.1386 19.252L7.55281 17.8378ZM6.69312 16.57C6.4854 16.0766 6.38086 15.5577 6.38086 15.0049H4.38086C4.38086 15.8192 4.53673 16.6024 4.84985 17.3461L6.69312 16.57ZM6.38086 15.0049V4.99512H4.38086V15.0049H6.38086ZM6.38086 4.99512C6.38086 4.44221 6.48538 3.93497 6.68934 3.46332L4.85363 2.6695C4.53675 3.40227 4.38086 4.18084 4.38086 4.99512H6.38086ZM6.69312 3.45446C6.90417 2.95323 7.18741 2.53918 7.53984 2.19934L6.15157 0.759648C5.59254 1.29871 5.15964 1.94261 4.84985 2.67835L6.69312 3.45446ZM7.55281 2.1866C7.91772 1.82168 8.34094 1.53441 8.82953 1.32313L8.03571 -0.512584C7.31986 -0.203029 6.68513 0.225845 6.1386 0.772385L7.55281 2.1866ZM8.84098 1.31809C9.32983 1.0994 9.8416 0.990234 10.3857 0.990234V-1.00977C9.5627 -1.00977 8.77238 -0.842237 8.02425 -0.507545L8.84098 1.31809ZM10.3857 0.990234H27.3779V-1.00977H10.3857V0.990234ZM27.3779 0.990234C27.9221 0.990234 28.4221 1.09934 28.8891 1.31395L29.7241 -0.503403C28.9868 -0.842183 28.201 -1.00977 27.3779 -1.00977V0.990234ZM28.9186 1.32691C29.4229 1.53923 29.8504 1.82611 30.2109 2.1866L31.6251 0.772385C31.0741 0.22142 30.4274 -0.207853 29.6947 -0.516362L28.9186 1.32691ZM30.2238 2.19934C30.5763 2.53918 30.8595 2.95323 31.0705 3.45446L32.9138 2.67835C32.604 1.94261 32.1711 1.29871 31.6121 0.759648L30.2238 2.19934ZM31.0743 3.46332C31.2783 3.93497 31.3828 4.44221 31.3828 4.99512H33.3828C33.3828 4.18084 33.2269 3.40227 32.91 2.6695L31.0743 3.46332ZM31.3828 4.99512V9.51172H33.3828V4.99512H31.3828ZM32.3828 8.51172H27.3779V10.5117H32.3828V8.51172ZM28.3779 9.51172V4.99512H26.3779V9.51172H28.3779ZM27.3779 3.99512H10.3857V5.99512H27.3779V3.99512ZM9.38574 4.99512V15.0049H11.3857V4.99512H9.38574ZM10.3857 16.0049H27.3779V14.0049H10.3857V16.0049ZM27.3779 16.0049C27.9308 16.0049 28.4381 16.1094 28.9097 16.3134L29.7036 14.4777C28.9708 14.1608 28.1922 14.0049 27.3779 14.0049V16.0049ZM28.9186 16.3171C29.4229 16.5295 29.8504 16.8163 30.2109 17.1768L31.6251 15.7626C31.0741 15.2117 30.4274 14.7824 29.6947 14.4739L28.9186 16.3171ZM30.2109 17.1768C30.5714 17.5373 30.8582 17.9648 31.0705 18.4691L32.9138 17.693C32.6053 16.9603 32.176 16.3136 31.6251 15.7626L30.2109 17.1768ZM31.0743 18.478C31.2783 18.9496 31.3828 19.4569 31.3828 20.0098H33.3828C33.3828 19.1955 33.2269 18.4169 32.91 17.6841L31.0743 18.478ZM31.3828 20.0098V29.9951H33.3828V20.0098H31.3828ZM31.3828 29.9951C31.3828 30.548 31.2783 31.0669 31.0705 31.5602L32.9138 32.3363C33.2269 31.5926 33.3828 30.8094 33.3828 29.9951H31.3828ZM31.0743 31.5513C30.8631 32.0399 30.5758 32.4631 30.2109 32.828L31.6251 34.2423C32.1716 33.6957 32.6005 33.061 32.91 32.3452L31.0743 31.5513ZM30.2109 32.828C29.8504 33.1885 29.4229 33.4754 28.9186 33.6877L29.6947 35.531C30.4274 35.2225 31.0741 34.7932 31.6251 34.2423L30.2109 32.828ZM28.9097 33.6915C28.4381 33.8955 27.9308 34 27.3779 34V36C28.1922 36 28.9708 35.8441 29.7036 35.5272L28.9097 33.6915ZM27.3779 34H9.89746V36H27.3779V34ZM9.89746 34C9.3446 34 8.82571 33.8955 8.33239 33.6877L7.55628 35.531C8.29993 35.8441 9.08314 36 9.89746 36V34ZM8.34125 33.6915C7.85266 33.4802 7.42944 33.193 7.06453 32.828L5.65031 34.2423C6.19685 34.7888 6.83158 35.2177 7.54742 35.5272L8.34125 33.6915ZM7.06453 32.828C6.69961 32.4631 6.41234 32.0399 6.20106 31.5513L4.36535 32.3452C4.6749 33.061 5.10378 33.6957 5.65031 34.2423L7.06453 32.828ZM6.20484 31.5602C5.99712 31.0669 5.89258 30.548 5.89258 29.9951H3.89258C3.89258 30.8094 4.04845 31.5926 4.36156 32.3363L6.20484 31.5602ZM5.89258 29.9951V25.5029H3.89258V29.9951H5.89258ZM4.89258 26.5029H9.89746V24.5029H4.89258V26.5029ZM8.89746 25.5029V29.9951H10.8975V25.5029H8.89746ZM9.89746 30.9951H27.3779V28.9951H9.89746V30.9951ZM28.3779 29.9951V20.0098H26.3779V29.9951H28.3779ZM27.3779 19.0098H10.3857V21.0098H27.3779V19.0098ZM56.9189 -0.00976562L57.852 -0.369573L57.6051 -1.00977H56.9189V-0.00976562ZM70.4199 35V36H71.8773L71.353 34.6402L70.4199 35ZM65.415 35L64.4818 35.3592L64.7284 36H65.415V35ZM62.3145 26.9434L63.2477 26.5842L63.0011 25.9434H62.3145V26.9434ZM46.5186 26.9434V25.9434H45.8319L45.5853 26.5842L46.5186 26.9434ZM43.418 35V36H44.1046L44.3512 35.3592L43.418 35ZM38.4131 35L37.4801 34.6402L36.9557 36H38.4131V35ZM51.9141 -0.00976562V-1.00977H51.2279L50.981 -0.369573L51.9141 -0.00976562ZM48.4229 21.9385L47.491 21.5757L46.9605 22.9385H48.4229V21.9385ZM60.3857 21.9385V22.9385H61.8438L61.3186 21.5783L60.3857 21.9385ZM54.4287 6.50879L55.3616 6.14862L54.4325 3.74215L53.4968 6.14606L54.4287 6.50879ZM55.9859 0.350042L69.4869 35.3598L71.353 34.6402L57.852 -0.369573L55.9859 0.350042ZM70.4199 34H65.415V36H70.4199V34ZM66.3483 34.6408L63.2477 26.5842L61.3812 27.3025L64.4818 35.3592L66.3483 34.6408ZM62.3145 25.9434H46.5186V27.9434H62.3145V25.9434ZM45.5853 26.5842L42.4847 34.6408L44.3512 35.3592L47.4518 27.3025L45.5853 26.5842ZM43.418 34H38.4131V36H43.418V34ZM39.3461 35.3598L52.8471 0.350042L50.981 -0.369573L37.4801 34.6402L39.3461 35.3598ZM51.9141 0.990234H56.9189V-1.00977H51.9141V0.990234ZM48.4229 22.9385H60.3857V20.9385H48.4229V22.9385ZM61.3186 21.5783L55.3616 6.14862L53.4958 6.86895L59.4529 22.2986L61.3186 21.5783ZM53.4968 6.14606L47.491 21.5757L49.3547 22.3012L55.3606 6.87152L53.4968 6.14606ZM99.2285 16.7383L98.813 15.8287L96.433 16.9158L98.9314 17.6931L99.2285 16.7383ZM102.769 19.3506L101.924 19.8862L101.93 19.8956L102.769 19.3506ZM103.745 21.6699L104.714 21.4232L103.745 21.6699ZM76.4258 35H75.4258V36H76.4258V35ZM76.4258 -0.00976562V-1.00977H75.4258V-0.00976562H76.4258ZM102.134 13.9795L101.242 13.5276L101.239 13.5323L102.134 13.9795ZM81.333 19.7412V18.7412H80.333V19.7412H81.333ZM81.333 30.0928H80.333V31.0928H81.333V30.0928ZM98.3008 29.165L97.5748 28.4773L98.3008 29.165ZM81.333 4.89746V3.89746H80.333V4.89746H81.333ZM81.333 14.8584H80.333V15.8584H81.333V14.8584ZM94.7852 14.8584V15.8584H94.8054L94.8257 15.8576L94.7852 14.8584ZM97.373 13.8818L96.618 13.2261L96.6167 13.2277L97.373 13.8818ZM98.9314 17.6931C99.5689 17.8915 100.142 18.172 100.656 18.533L101.805 16.8967C101.115 16.4113 100.353 16.0408 99.5256 15.7834L98.9314 17.6931ZM100.656 18.533C101.142 18.8752 101.566 19.3216 101.924 19.8861L103.613 18.815C103.125 18.045 102.523 17.4008 101.805 16.8967L100.656 18.533ZM101.93 19.8956C102.284 20.4395 102.57 21.1078 102.776 21.9166L104.714 21.4232C104.464 20.4417 104.1 19.5638 103.607 18.8056L101.93 19.8956ZM102.776 21.9166C102.979 22.714 103.087 23.6539 103.087 24.7461H105.087C105.087 23.5271 104.967 22.4162 104.714 21.4232L102.776 21.9166ZM103.087 24.7461V26.5039H105.087V24.7461H103.087ZM103.087 26.5039C103.087 29.1818 102.418 31.0065 101.256 32.1689C100.093 33.3312 98.2687 34 95.5908 34V36C98.577 36 101 35.2528 102.67 33.5831C104.34 31.9134 105.087 29.4901 105.087 26.5039H103.087ZM95.5908 34H76.4258V36H95.5908V34ZM77.4258 35V-0.00976562H75.4258V35H77.4258ZM76.4258 0.990234H94.5898V-1.00977H76.4258V0.990234ZM94.5898 0.990234C97.267 0.990234 99.0914 1.66067 100.254 2.82645C101.417 3.99276 102.086 5.824 102.086 8.51074H104.086C104.086 5.51715 103.339 3.08813 101.67 1.41427C100 -0.260121 97.5768 -1.00977 94.5898 -1.00977V0.990234ZM102.086 8.51074V9.14551H104.086V8.51074H102.086ZM102.086 9.14551C102.086 11.0172 101.783 12.4592 101.242 13.5276L103.026 14.4313C103.754 12.9933 104.086 11.2126 104.086 9.14551H102.086ZM101.239 13.5323C100.728 14.5546 99.9344 15.3165 98.813 15.8287L99.644 17.6479C101.159 16.9557 102.302 15.8783 103.028 14.4267L101.239 13.5323ZM80.333 19.7412V30.0928H82.333V19.7412H80.333ZM81.333 31.0928H95.4443V29.0928H81.333V31.0928ZM95.4443 31.0928C96.8894 31.0928 98.1699 30.7572 99.0267 29.8528L97.5748 28.4773C97.2598 28.8099 96.636 29.0928 95.4443 29.0928V31.0928ZM99.0267 29.8528C99.8638 28.9692 100.18 27.6984 100.18 26.2598H98.1797C98.1797 27.4578 97.9096 28.1239 97.5748 28.4773L99.0267 29.8528ZM100.18 26.2598V23.5498H98.1797V26.2598H100.18ZM100.18 23.5498C100.18 22.102 99.8669 20.8202 99.0175 19.9472L97.5841 21.3419C97.9065 21.6733 98.1797 22.3283 98.1797 23.5498H100.18ZM99.0175 19.9472C98.1597 19.0655 96.883 18.7412 95.4443 18.7412V20.7412C96.6424 20.7412 97.27 21.0191 97.5841 21.3419L99.0175 19.9472ZM95.4443 18.7412H81.333V20.7412H95.4443V18.7412ZM80.333 4.89746V14.8584H82.333V4.89746H80.333ZM81.333 15.8584H94.7852V13.8584H81.333V15.8584ZM94.8257 15.8576C96.1651 15.8033 97.3526 15.4342 98.1294 14.536L96.6167 13.2277C96.3518 13.5339 95.8141 13.8159 94.7446 13.8592L94.8257 15.8576ZM98.1281 14.5375C98.89 13.6601 99.1787 12.4337 99.1787 11.0498H97.1787C97.1787 12.205 96.9303 12.8666 96.618 13.2261L98.1281 14.5375ZM99.1787 11.0498V8.75488H97.1787V11.0498H99.1787ZM99.1787 8.75488C99.1787 7.30399 98.8646 6.02293 98.0258 5.13745L96.5739 6.51294C96.9069 6.86444 97.1787 7.5365 97.1787 8.75488H99.1787ZM98.0258 5.13745C97.1689 4.23304 95.8884 3.89746 94.4434 3.89746V5.89746C95.635 5.89746 96.2588 6.18037 96.5739 6.51294L98.0258 5.13745ZM94.4434 3.89746H81.333V5.89746H94.4434V3.89746ZM141.196 31.9482L142.114 32.3452L142.118 32.3363L141.196 31.9482ZM138.511 34.6094L138.123 33.6877L138.114 33.6915L138.511 34.6094ZM114.634 34.6094L114.237 35.5273L114.246 35.531L114.634 34.6094ZM113.047 33.5352L112.34 34.2423L113.047 33.5352ZM111.973 31.9482L111.051 32.3363L111.055 32.3452L111.973 31.9482ZM111.973 3.06641L112.891 3.46334L112.894 3.45446L111.973 3.06641ZM113.047 1.47949L113.741 2.19934L113.748 2.19303L113.754 2.1866L113.047 1.47949ZM114.634 0.405273L115.031 1.3232L115.042 1.31809L114.634 0.405273ZM138.511 0.405273L138.093 1.31395L138.108 1.32067L138.123 1.32691L138.511 0.405273ZM140.122 1.47949L139.415 2.1866L139.421 2.19303L139.428 2.19934L140.122 1.47949ZM141.196 3.06641L140.275 3.45448L140.278 3.46332L141.196 3.06641ZM116.587 4.99512V3.99512H115.587V4.99512H116.587ZM116.587 29.9951H115.587V30.9951H116.587V29.9951ZM136.582 29.9951V30.9951H137.582V29.9951H136.582ZM136.582 4.99512H137.582V3.99512H136.582V4.99512ZM140.587 29.9951C140.587 30.548 140.482 31.0669 140.275 31.5602L142.118 32.3363C142.431 31.5926 142.587 30.8094 142.587 29.9951H140.587ZM140.278 31.5513C140.067 32.0399 139.78 32.4631 139.415 32.828L140.829 34.2423C141.376 33.6957 141.805 33.061 142.114 32.3452L140.278 31.5513ZM139.415 32.828C139.054 33.1885 138.627 33.4754 138.123 33.6877L138.899 35.531C139.632 35.2225 140.278 34.7932 140.829 34.2423L139.415 32.828ZM138.114 33.6915C137.642 33.8955 137.135 34 136.582 34V36C137.396 36 138.175 35.8441 138.908 35.5272L138.114 33.6915ZM136.582 34H116.587V36H136.582V34ZM116.587 34C116.034 34 115.515 33.8955 115.022 33.6877L114.246 35.531C114.989 35.8441 115.773 36 116.587 36V34ZM115.031 33.6915C114.542 33.4802 114.119 33.193 113.754 32.828L112.34 34.2423C112.886 34.7888 113.521 35.2177 114.237 35.5272L115.031 33.6915ZM113.754 32.828C113.389 32.4631 113.102 32.0399 112.891 31.5513L111.055 32.3452C111.364 33.061 111.793 33.6957 112.34 34.2423L113.754 32.828ZM112.894 31.5602C112.687 31.0669 112.582 30.548 112.582 29.9951H110.582C110.582 30.8094 110.738 31.5926 111.051 32.3363L112.894 31.5602ZM112.582 29.9951V4.99512H110.582V29.9951H112.582ZM112.582 4.99512C112.582 4.44221 112.687 3.93497 112.891 3.46332L111.055 2.6695C110.738 3.40227 110.582 4.18084 110.582 4.99512H112.582ZM112.894 3.45446C113.105 2.95323 113.389 2.53918 113.741 2.19934L112.353 0.759648C111.794 1.29871 111.361 1.94261 111.051 2.67835L112.894 3.45446ZM113.754 2.1866C114.119 1.82168 114.542 1.53441 115.031 1.32313L114.237 -0.512584C113.521 -0.203029 112.886 0.225845 112.34 0.772385L113.754 2.1866ZM115.042 1.31809C115.531 1.0994 116.043 0.990234 116.587 0.990234V-1.00977C115.764 -1.00977 114.974 -0.842237 114.225 -0.507545L115.042 1.31809ZM116.587 0.990234H136.582V-1.00977H116.587V0.990234ZM136.582 0.990234C137.126 0.990234 137.626 1.09934 138.093 1.31395L138.928 -0.503403C138.191 -0.842183 137.405 -1.00977 136.582 -1.00977V0.990234ZM138.123 1.32691C138.627 1.53923 139.054 1.82611 139.415 2.1866L140.829 0.772385C140.278 0.22142 139.632 -0.207853 138.899 -0.516362L138.123 1.32691ZM139.428 2.19934C139.78 2.53918 140.064 2.95323 140.275 3.45446L142.118 2.67835C141.808 1.94261 141.375 1.29871 140.816 0.759648L139.428 2.19934ZM140.278 3.46332C140.482 3.93497 140.587 4.44221 140.587 4.99512H142.587C142.587 4.18084 142.431 3.40227 142.114 2.6695L140.278 3.46332ZM140.587 4.99512V29.9951H142.587V4.99512H140.587ZM115.587 4.99512V29.9951H117.587V4.99512H115.587ZM116.587 30.9951H136.582V28.9951H116.587V30.9951ZM137.582 29.9951V4.99512H135.582V29.9951H137.582ZM136.582 3.99512H116.587V5.99512H136.582V3.99512ZM147.593 -0.00976562V-1.00977H146.593V-0.00976562H147.593ZM175.596 -0.00976562H176.596V-1.00977H175.596V-0.00976562ZM175.596 4.99512V5.99512H176.596V4.99512H175.596ZM164.097 4.99512V3.99512H163.097V4.99512H164.097ZM164.097 35V36H165.097V35H164.097ZM159.092 35H158.092V36H159.092V35ZM159.092 4.99512H160.092V3.99512H159.092V4.99512ZM147.593 4.99512H146.593V5.99512H147.593V4.99512ZM147.593 0.990234H175.596V-1.00977H147.593V0.990234ZM174.596 -0.00976562V4.99512H176.596V-0.00976562H174.596ZM175.596 3.99512H164.097V5.99512H175.596V3.99512ZM163.097 4.99512V35H165.097V4.99512H163.097ZM164.097 34H159.092V36H164.097V34ZM160.092 35V4.99512H158.092V35H160.092ZM159.092 3.99512H147.593V5.99512H159.092V3.99512ZM148.593 4.99512V-0.00976562H146.593V4.99512H148.593ZM193.101 -0.00976562L194.034 -0.369573L193.787 -1.00977H193.101V-0.00976562ZM206.602 35V36H208.059L207.535 34.6402L206.602 35ZM201.597 35L200.663 35.3592L200.91 36H201.597V35ZM198.496 26.9434L199.429 26.5842L199.183 25.9434H198.496V26.9434ZM182.7 26.9434V25.9434H182.014L181.767 26.5842L182.7 26.9434ZM179.6 35V36H180.286L180.533 35.3592L179.6 35ZM174.595 35L173.662 34.6402L173.137 36H174.595V35ZM188.096 -0.00976562V-1.00977H187.41L187.163 -0.369573L188.096 -0.00976562ZM184.604 21.9385L183.673 21.5757L183.142 22.9385H184.604V21.9385ZM196.567 21.9385V22.9385H198.025L197.5 21.5783L196.567 21.9385ZM190.61 6.50879L191.543 6.14862L190.614 3.74215L189.678 6.14606L190.61 6.50879ZM192.168 0.350042L205.669 35.3598L207.535 34.6402L194.034 -0.369573L192.168 0.350042ZM206.602 34H201.597V36H206.602V34ZM202.53 34.6408L199.429 26.5842L197.563 27.3025L200.663 35.3592L202.53 34.6408ZM198.496 25.9434H182.7V27.9434H198.496V25.9434ZM181.767 26.5842L178.666 34.6408L180.533 35.3592L183.633 27.3025L181.767 26.5842ZM179.6 34H174.595V36H179.6V34ZM175.528 35.3598L189.029 0.350042L187.163 -0.369573L173.662 34.6402L175.528 35.3598ZM188.096 0.990234H193.101V-1.00977H188.096V0.990234ZM184.604 22.9385H196.567V20.9385H184.604V22.9385ZM197.5 21.5783L191.543 6.14862L189.677 6.86895L195.634 22.2986L197.5 21.5783ZM189.678 6.14606L183.673 21.5757L185.536 22.3012L191.542 6.87152L189.678 6.14606ZM212.998 3.06641L213.916 3.46334L213.92 3.45446L212.998 3.06641ZM214.072 1.47949L214.766 2.19934L214.773 2.19303L214.779 2.1866L214.072 1.47949ZM215.659 0.405273L216.056 1.3232L216.068 1.31809L215.659 0.405273ZM238.535 0.405273L238.118 1.31395L238.132 1.32067L238.147 1.32691L238.535 0.405273ZM240.146 1.47949L239.439 2.1866L239.446 2.19303L239.452 2.19934L240.146 1.47949ZM241.221 3.06641L240.299 3.45448L240.303 3.46332L241.221 3.06641ZM241.611 9.51172V10.5117H242.611V9.51172H241.611ZM236.606 9.51172H235.606V10.5117H236.606V9.51172ZM236.606 4.99512H237.606V3.99512H236.606V4.99512ZM217.612 4.99512V3.99512H216.612V4.99512H217.612ZM217.612 29.9951H216.612V30.9951H217.612V29.9951ZM236.606 29.9951V30.9951H237.606V29.9951H236.606ZM236.606 21.499H237.606V20.499H236.606V21.499ZM227.109 21.499H226.109V22.499H227.109V21.499ZM227.109 16.4941V15.4941H226.109V16.4941H227.109ZM241.611 16.4941H242.611V15.4941H241.611V16.4941ZM241.221 31.9482L242.139 32.3452L242.142 32.3363L241.221 31.9482ZM240.146 33.5352L239.439 32.828L240.146 33.5352ZM238.535 34.6094L238.147 33.6877L238.138 33.6915L238.535 34.6094ZM215.659 34.6094L215.262 35.5273L215.271 35.531L215.659 34.6094ZM214.072 33.5352L213.365 34.2423L214.072 33.5352ZM212.998 31.9482L212.076 32.3363L212.08 32.3452L212.998 31.9482ZM213.607 4.99512C213.607 4.44221 213.712 3.93497 213.916 3.46332L212.08 2.6695C211.763 3.40227 211.607 4.18084 211.607 4.99512H213.607ZM213.92 3.45446C214.131 2.95323 214.414 2.53918 214.766 2.19934L213.378 0.759648C212.819 1.29871 212.386 1.94261 212.076 2.67835L213.92 3.45446ZM214.779 2.1866C215.144 1.82168 215.568 1.53441 216.056 1.32313L215.262 -0.512584C214.546 -0.203029 213.912 0.225845 213.365 0.772385L214.779 2.1866ZM216.068 1.31809C216.556 1.0994 217.068 0.990234 217.612 0.990234V-1.00977C216.789 -1.00977 215.999 -0.842237 215.251 -0.507545L216.068 1.31809ZM217.612 0.990234H236.606V-1.00977H217.612V0.990234ZM236.606 0.990234C237.151 0.990234 237.651 1.09934 238.118 1.31395L238.953 -0.503403C238.215 -0.842183 237.43 -1.00977 236.606 -1.00977V0.990234ZM238.147 1.32691C238.651 1.53923 239.079 1.82611 239.439 2.1866L240.854 0.772385C240.303 0.22142 239.656 -0.207853 238.923 -0.516362L238.147 1.32691ZM239.452 2.19934C239.805 2.53918 240.088 2.95323 240.299 3.45446L242.142 2.67835C241.833 1.94261 241.4 1.29871 240.841 0.759648L239.452 2.19934ZM240.303 3.46332C240.507 3.93497 240.611 4.44221 240.611 4.99512H242.611C242.611 4.18084 242.455 3.40227 242.139 2.6695L240.303 3.46332ZM240.611 4.99512V9.51172H242.611V4.99512H240.611ZM241.611 8.51172H236.606V10.5117H241.611V8.51172ZM237.606 9.51172V4.99512H235.606V9.51172H237.606ZM236.606 3.99512H217.612V5.99512H236.606V3.99512ZM216.612 4.99512V29.9951H218.612V4.99512H216.612ZM217.612 30.9951H236.606V28.9951H217.612V30.9951ZM237.606 29.9951V21.499H235.606V29.9951H237.606ZM236.606 20.499H227.109V22.499H236.606V20.499ZM228.109 21.499V16.4941H226.109V21.499H228.109ZM227.109 17.4941H241.611V15.4941H227.109V17.4941ZM240.611 16.4941V29.9951H242.611V16.4941H240.611ZM240.611 29.9951C240.611 30.548 240.507 31.0669 240.299 31.5602L242.142 32.3363C242.455 31.5926 242.611 30.8094 242.611 29.9951H240.611ZM240.303 31.5513C240.092 32.0399 239.804 32.4631 239.439 32.828L240.854 34.2423C241.4 33.6957 241.829 33.061 242.139 32.3452L240.303 31.5513ZM239.439 32.828C239.079 33.1885 238.651 33.4754 238.147 33.6877L238.923 35.531C239.656 35.2225 240.303 34.7932 240.854 34.2423L239.439 32.828ZM238.138 33.6915C237.667 33.8955 237.159 34 236.606 34V36C237.421 36 238.199 35.8441 238.932 35.5272L238.138 33.6915ZM236.606 34H217.612V36H236.606V34ZM217.612 34C217.059 34 216.541 33.8955 216.047 33.6877L215.271 35.531C216.015 35.8441 216.798 36 217.612 36V34ZM216.056 33.6915C215.568 33.4802 215.144 33.193 214.779 32.828L213.365 34.2423C213.912 34.7888 214.546 35.2177 215.262 35.5272L216.056 33.6915ZM214.779 32.828C214.414 32.4631 214.127 32.0399 213.916 31.5513L212.08 32.3452C212.39 33.061 212.819 33.6957 213.365 34.2423L214.779 32.828ZM213.92 31.5602C213.712 31.0669 213.607 30.548 213.607 29.9951H211.607C211.607 30.8094 211.763 31.5926 212.076 32.3363L213.92 31.5602ZM213.607 29.9951V4.99512H211.607V29.9951H213.607ZM250.596 -0.00976562V-1.00977H249.596V-0.00976562H250.596ZM276.108 -0.00976562H277.108V-1.00977H276.108V-0.00976562ZM276.108 4.99512V5.99512H277.108V4.99512H276.108ZM255.601 4.99512V3.99512H254.601V4.99512H255.601ZM255.601 15.0049H254.601V16.0049H255.601V15.0049ZM273.105 15.0049H274.105V14.0049H273.105V15.0049ZM273.105 20.0098V21.0098H274.105V20.0098H273.105ZM255.601 20.0098V19.0098H254.601V20.0098H255.601ZM255.601 29.9951H254.601V30.9951H255.601V29.9951ZM276.108 29.9951H277.108V28.9951H276.108V29.9951ZM276.108 35V36H277.108V35H276.108ZM250.596 35H249.596V36H250.596V35ZM250.596 0.990234H276.108V-1.00977H250.596V0.990234ZM275.108 -0.00976562V4.99512H277.108V-0.00976562H275.108ZM276.108 3.99512H255.601V5.99512H276.108V3.99512ZM254.601 4.99512V15.0049H256.601V4.99512H254.601ZM255.601 16.0049H273.105V14.0049H255.601V16.0049ZM272.105 15.0049V20.0098H274.105V15.0049H272.105ZM273.105 19.0098H255.601V21.0098H273.105V19.0098ZM254.601 20.0098V29.9951H256.601V20.0098H254.601ZM255.601 30.9951H276.108V28.9951H255.601V30.9951ZM275.108 29.9951V35H277.108V29.9951H275.108ZM276.108 34H250.596V36H276.108V34ZM251.596 35V-0.00976562H249.596V35H251.596Z" fill="black" mask="url(#path-1-inside-1_228_125)"/>
</g>
<defs>
<filter id="filter0_d_228_125" x="0.892578" y="-0.00976562" width="279.216" height="47.0098" filterUnits="userSpaceOnUse" color-interpolation-filters="sRGB">
<feFlood flood-opacity="0" result="BackgroundImageFix"/>
<feColorMatrix in="SourceAlpha" type="matrix" values="0 0 0 0 0 0 0 0 0 0 0 0 0 0 0 0 0 0 127 0" result="hardAlpha"/>
<feOffset dy="8"/>
<feGaussianBlur stdDeviation="2"/>
<feComposite in2="hardAlpha" operator="out"/>
<feColorMatrix type="matrix" values="0 0 0 0 0.0627451 0 0 0 0 0.239216 0 0 0 0 0.243137 0 0 0 1 0"/>
<feBlend mode="normal" in2="BackgroundImageFix" result="effect1_dropShadow_228_125"/>
<feBlend mode="normal" in="SourceGraphic" in2="effect1_dropShadow_228_125" result="shape"/>
</filter>
</defs>
</svg>
